<svg enable-background="new 0 0 122.88 67.41" viewBox="0 0 122.88 67.41" xmlns="http://www.w3.org/2000/svg"><path d="m79.93 51.37c-.53-.51-.32-1.2.48-1.54s1.87-.2 2.41.3c3.78 3.6 1.96 6.52.21 9.32-1.32 2.12-2.59 4.15-.25 6.19.57.5.4 1.19-.37 1.55s-1.86.26-2.43-.24c-3.47-3.03-1.86-5.62-.17-8.32 1.41-2.27 2.89-4.63.12-7.26zm-65.36-23.26h73.65c.96 0 1.74.78 1.74 1.74v12.26h24.13c1.46 0 2.79-.6 3.75-1.56s1.56-2.29 1.56-3.75v-28c0-1.46-.6-2.79-1.56-3.75s-2.29-1.56-3.75-1.56h-105.29c-1.46 0-2.79.6-3.75 1.56-.97.96-1.57 2.29-1.57 3.75v28c0 1.46.6 2.79 1.56 3.75s2.29 1.56 3.75 1.56h4.03v-12.26c.01-.96.79-1.74 1.75-1.74zm71.91 3.48h-70.17v10.09h70.17zm-71.27-17.95c-.96 0-1.74-.78-1.74-1.74s.78-1.74 1.74-1.74h93.74c.96 0 1.74.78 1.74 1.74s-.78 1.74-1.74 1.74zm83.37 18.35c1.36 0 2.46 1.1 2.46 2.46s-1.1 2.46-2.46 2.46-2.46-1.1-2.46-2.46 1.11-2.46 2.46-2.46zm10.27 0c1.36 0 2.46 1.1 2.46 2.46s-1.1 2.46-2.46 2.46-2.46-1.1-2.46-2.46 1.1-2.46 2.46-2.46zm-100.05-31.99h105.29c2.42 0 4.62.99 6.21 2.58s2.58 3.79 2.58 6.21v28.01c0 2.42-.99 4.62-2.58 6.21s-3.79 2.58-6.21 2.58h-105.29c-2.42 0-4.62-.99-6.21-2.58-1.6-1.59-2.59-3.79-2.59-6.21v-28c0-2.42.99-4.62 2.58-6.21 1.6-1.6 3.8-2.59 6.22-2.59zm6.41 21.76c-.96 0-1.74-.78-1.74-1.74s.78-1.74 1.74-1.74h93.74c.96 0 1.74.78 1.74 1.74s-.78 1.74-1.74 1.74zm6.16 29.61c-.53-.51-.32-1.2.48-1.54s1.87-.2 2.41.3c3.78 3.6 1.96 6.52.21 9.32-1.32 2.12-2.59 4.15-.25 6.19.57.5.4 1.19-.37 1.55s-1.86.26-2.43-.24c-3.47-3.03-1.86-5.62-.17-8.32 1.41-2.27 2.88-4.63.12-7.26zm14.64 0c-.53-.51-.32-1.2.48-1.54s1.87-.2 2.41.3c3.78 3.6 1.96 6.52.21 9.32-1.32 2.12-2.59 4.15-.25 6.19.57.5.4 1.19-.37 1.55s-1.86.26-2.43-.24c-3.47-3.03-1.86-5.62-.17-8.32 1.41-2.27 2.88-4.63.12-7.26zm14.64 0c-.53-.51-.32-1.2.48-1.54s1.87-.2 2.41.3c3.78 3.6 1.96 6.52.21 9.32-1.32 2.12-2.59 4.15-.25 6.19.57.5.4 1.19-.37 1.55s-1.86.26-2.43-.24c-3.47-3.03-1.86-5.62-.17-8.32 1.41-2.27 2.89-4.63.12-7.26zm14.64 0c-.53-.51-.32-1.2.48-1.54s1.87-.2 2.41.3c3.78 3.6 1.96 6.52.21 9.32-1.32 2.12-2.59 4.15-.25 6.19.57.5.4 1.19-.37 1.55s-1.86.26-2.43-.24c-3.47-3.03-1.85-5.62-.17-8.32 1.41-2.27 2.89-4.63.12-7.26z"/></svg>