<svg enable-background="new 0 0 32 32" viewBox="0 0 32 32" xmlns="http://www.w3.org/2000/svg"><path d="m29 30.36h-3c-.199 0-.36-.161-.36-.36v-3.64h-19.28v3.64c0 .199-.161.36-.36.36h-3c-.199 0-.36-.161-.36-.36v-4c0-.023.002-.046.006-.067-.608-.428-1.006-1.135-1.006-1.933v-8c0-1.209.914-2.209 2.087-2.344l2.714-9.046c.174-.58.698-.97 1.303-.97h16.512c.605 0 1.129.39 1.303.969l2.714 9.046c1.174.135 2.088 1.135 2.088 2.344v8c0 .798-.398 1.505-1.007 1.933.004.021.007.044.007.067v4c-.001.2-.162.361-.361.361zm-2.64-.72h2.279v-3.368c-.203.058-.418.089-.64.089h-1.64zm-23 0h2.28v-3.28h-1.64c-.222 0-.437-.031-.64-.089zm22.64-4h2c.904 0 1.64-.735 1.64-1.64v-8c0-.902-.731-1.636-1.632-1.64-.008-.001-.012 0-.017 0h-23.983c-.004 0-.011 0-.016 0-.9.004-1.632.738-1.632 1.64v8c0 .904.736 1.64 1.64 1.64zm-21.516-12h23.033l-2.185-7.28h-18.664zm2.4-8h18.232l-.247-.824c-.081-.269-.333-.457-.613-.457h-16.512c-.285 0-.531.184-.613.457zm18.116 15.72c-1.302 0-2.36-1.059-2.36-2.36s1.059-2.36 2.36-2.36 2.36 1.058 2.36 2.36-1.058 2.36-2.36 2.36zm0-4c-.904 0-1.64.735-1.64 1.64s.735 1.64 1.64 1.64 1.64-.735 1.64-1.64-.736-1.64-1.64-1.64zm-18 4c-1.301 0-2.36-1.059-2.36-2.36s1.059-2.36 2.36-2.36 2.36 1.058 2.36 2.36-1.059 2.36-2.36 2.36zm0-4c-.904 0-1.64.735-1.64 1.64s.736 1.64 1.64 1.64 1.64-.736 1.64-1.64-.736-1.64-1.64-1.64zm15-5c-.108 0-.216-.049-.287-.143l-3-3.964c-.12-.159-.089-.384.07-.504.155-.12.382-.091.504.07l3 3.964c.12.159.089.384-.07.504-.065.049-.141.073-.217.073zm1-1.82c-.109 0-.218-.05-.288-.145l-2-2.68c-.119-.159-.087-.385.073-.504.158-.118.384-.087.503.073l2 2.68c.119.159.087.385-.073.504-.065.049-.14.072-.215.072zm7 13.82h-28v-.72h28zm-9-4h-10v-.72h10zm0-2h-10v-.72h10zm8.36-6.36h-.72v-3h.721zm-26 0h-.72v-3h.72z"/><path d="m0 0h32v32h-32z" fill="none"/></svg>