<svg viewBox="0 0 48 48" xmlns="http://www.w3.org/2000/svg"><path d="m45 24h-1v-2a2 2 0 0 0 -2-2h-1v-16.93a3 3 0 0 0 -4.21-2.74l-1.54.67c-3.34-2.51-8 .38-6.52 1.87 6.05 6.05 5.78 6 6.37 6 1.27 0 3.14-3.34 1.52-6.24l1-.43a1 1 0 0 1 1.38.87v16.93h-1a2 2 0 0 0 -2 2v2h-2.28a2 2 0 0 0 -1.72-1c-6.12 0-6.95-.33-7.72 1h-7.22l-3.23-3.25a5 5 0 0 0 -8.53 3.25h-2.3a3 3 0 0 0 -.89 5.85c1.51 10.54 1.28 10.95 2.65 12.47l-.41 2.47a2.75 2.75 0 0 0 2.71 3.21c2 0 2.57-1.64 4.14-4h25.59l1.86 2.78a2.75 2.75 0 0 0 4.35.22c1-1.24.58-2.44.21-4.71 1.38-1.52 1.14-1.93 2.65-12.47a3 3 0 0 0 -.86-5.82zm-10-17.71-4-4a3 3 0 0 1 4 4zm3 15.71h4v2h-4zm-6 3v8h-6v-8zm-19.59-2.83 1.83 1.83h-6.93a3 3 0 0 1 5.1-1.83zm-10.1 4.12c.4-.41-1.31-.29 21.69-.29v2h-21a1 1 0 0 1 -.69-1.71zm5.38 19.37a.75.75 0 0 1 -1.2.08c-.31-.38-.15-.72.09-2.13a5.14 5.14 0 0 0 2.22.39zm33.82.08a.76.76 0 0 1 -1.2-.08l-1.11-1.66a5.12 5.12 0 0 0 2.22-.39c.26 1.58.38 1.79.09 2.13zm1-6.31a3 3 0 0 1 -3 2.57h-31.04a3 3 0 0 1 -3-2.57l-1.32-9.43h19.85v4a1 1 0 0 0 1 1h8a1 1 0 0 0 1-1v-4h9.85zm3.19-11.72c-.4.41.17.29-11.69.29v-2h10.99a1 1 0 0 1 .69 1.71z"/><path d="m28 7.83a1 1 0 1 0 1.42 0 1 1 0 0 0 -1.42 0z"/><path d="m25.52 10.44a1 1 0 0 0 -.32 1.63 1 1 0 1 0 .32-1.63z"/><path d="m31.88 10.17a1 1 0 1 0 -.61-.93 1 1 0 0 0 .61.93z"/><path d="m30.15 11.36a1 1 0 1 0 1.7.71 1 1 0 0 0 -1.7-.71z"/><path d="m29.06 14a1 1 0 0 0 .76 1.84 1 1 0 0 0 -.76-1.84z"/><path d="m27.64 5.92a1 1 0 1 0 -.64-.92 1 1 0 0 0 .64.92z"/><path d="m25.2 7.41a1 1 0 1 0 -1-1 1 1 0 0 0 1 1z"/><path d="m21.66 8.53a1 1 0 0 0 1.42 0 1 1 0 0 0 0-1.41 1 1 0 0 0 -1.42 1.41z"/><path d="m7 18a4 4 0 1 0 -4-4 4 4 0 0 0 4 4zm0-6a2 2 0 1 1 -2 2 2 2 0 0 1 2-2z"/></svg>