<svg enable-background="new 0 0 32 32" viewBox="0 0 32 32" xmlns="http://www.w3.org/2000/svg"><path d="m12.36 30h-.72c0-1.302 1.059-2.36 2.36-2.36h16v.721h-16c-.904-.001-1.64.735-1.64 1.639zm-2 0h-.72c0-2.404 1.956-4.36 4.36-4.36h16v.721h-16c-2.007-.001-3.64 1.632-3.64 3.639zm-2 0h-.72c0-3.507 2.853-6.36 6.36-6.36h16v.721h-16c-3.11-.001-5.64 2.529-5.64 5.639zm-2 0h-.72c0-1.304.3-2.539.834-3.64h-4.474v-.72h4.869c.281-.457.604-.886.965-1.279h-5.834v-.721h6.58c.607-.518 1.289-.95 2.027-1.279h-8.607v-.721h.64v-7.147c0-.893.228-1.766.66-2.524.475-.832 1.297-1.329 2.2-1.329s1.725.497 2.2 1.329c.432.758.66 1.631.66 2.524v1.031c.557-.343 1.231-.507 1.913-.462.947.068 1.783.537 2.292 1.287.52.765.794 1.646.794 2.548v2.769c.211-.016.425-.024.64-.024h4.64v-5.271l-1.385 1.386-.509-.51 6.5-6.5c.141-.141.369-.141.51 0l6.5 6.5-.51.51-1.385-1.386v5.271h1.64v.721h-16c-4.213-.003-7.64 3.424-7.64 7.637zm19-8.36h2.279v-5.991l-4.14-4.14-4.14 4.14v5.991h2.279v-3.14c0-.199.161-.36.36-.36h3c.199 0 .36.161.36.36v3.14zm-3 0h2.279v-2.78h-2.279zm-12 0h2.28v-2.744c0-.757-.232-1.498-.67-2.143-.386-.566-1.023-.921-1.75-.974-.743-.053-1.479.225-1.955.746-.101.11-.258.146-.396.092s-.229-.187-.229-.335v-1.789c0-.768-.196-1.518-.566-2.167-.345-.605-.933-.966-1.574-.966s-1.229.361-1.574.965c-.371.65-.566 1.399-.566 2.167v7.147h1.28v-7.639h.72v7.64h4.28v-3.64h.72zm13.64-5.78h-1c-.199 0-.36-.161-.36-.36v-2c0-.199.161-.36.36-.36h1c.199 0 .36.161.36.36v2c0 .199-.161.36-.36.36zm-.64-.72h.279v-1.28h-.279zm3.5-6.14h-.72v-1h.721zm1.86-.771-.707-.708.51-.509.707.708zm-4.44 0-.51-.509.707-.708.51.509zm2.22-.869c-1.025 0-1.86-.834-1.86-1.86s.835-1.86 1.86-1.86 1.86.834 1.86 1.86-.835 1.86-1.86 1.86zm0-3c-.629 0-1.14.512-1.14 1.14s.511 1.14 1.14 1.14 1.14-.512 1.14-1.14-.511-1.14-1.14-1.14zm3.5 1.5h-1v-.72h1zm-6 0h-1v-.72h1zm-10-1.5h-3v-.72h3zm-5 0h-7v-.72h7zm19.522-.373-.51-.509.707-.708.51.509zm-4.044 0-.707-.708.51-.509.707.708zm2.382-.987h-.72v-1h.721zm-11.86-.64h-13v-.72h13z"/><path d="m0 0h32v32h-32z" fill="none"/></svg>