<svg viewBox="0 0 50 50" xmlns="http://www.w3.org/2000/svg"><path d="m4.4550781 6.0878906c-.3243467-.0182131-.6464444-.0140906-.9589843.0273438-.624491.082791-1.2097291.3125257-1.6972657.796875-.4635477.4592556-.6388326 1.0788017-.6660156 1.625-.027183.5461982.062948 1.0712394.1777344 1.6035156.2295723 1.064552.5818166 2.172503.6972656 3.107422.1075155.869758-.1066208 2.459658-.3925781 4.486328s-.6152344 4.518871-.6152344 7.390625c0 1.388069.2216435 3.656904 1.0917969 6.011719.2209546.597949.4874516 1.202563.8027343 1.796875.1006632 1.312447-.6493187 2.99464-1.015625 4.826172-.0814319.405529-.4438167 1.37253-.6582031 2.373046-.1072751.500642-.1825459 1.026843-.1347656 1.578126.04778.551282.2443291 1.162849.7128906 1.626953l.0019531.001953c.9793306.965938 2.3480958.915263 3.6347657.71289 1.2866698-.202373 2.6420552-.629356 3.8359375-.964843 2.9482766-.829012 8.4569756-.021485 15.1953126-.021485h.533203.533203c3.439571 0 6.53988-.23408 9.162109-.333984.815588-.03068 1.583813-.047819 2.298829-.042969 1.493833.0097 2.758234.124035 3.734375.398438 1.193882.335487 2.549141.764425 3.835937.966797 1.286796.20237 2.655025.252626 3.634766-.712891.703101-.693109.751691-1.635265.669922-2.351563-.08177-.716297-.291046-1.358519-.38086-1.734375-.136248-.570312-.415872-1.124987-.769531-1.835937-.062465-.125573-.14427-.282682-.210938-.414063.153022-1.047326.497333-3.141549.828126-5.441406.347177-2.413776.664062-4.892519.664062-6.439453 0-2.871754-.329277-5.363955-.615234-7.390625-.285958-2.02667-.500095-3.61657-.392578-4.486328.115448-.934919.467693-2.04287.697265-3.107422.114786-.5322762.204917-1.0573174.177735-1.6035156-.027181-.5461983-.202468-1.1657444-.666016-1.625-.487537-.4843493-1.072775-.7140843-1.697266-.796875-.62508-.082869-1.288213-.0191948-1.93164.0820312-1.286855.2024528-2.644363.6299557-3.841797.9648438-2.950953.826022-8.45933.0214844-15.197266.0214844h-.533203-.533203c-1.608272 0-5.410043-.1242697-9.21875 1.1972656-1.743876.0261698-4.538067-.81526-5.9785158-1.21875-1.1974336-.3348881-2.554942-.762391-3.8417968-.9648438-.3217137-.0506131-.6483095-.0911619-.9726563-.109375zm-.0585937 2.0136719c.2145193.0075236.4548543.0304413.7207031.0722656 1.0633952.1672973 2.3757149.5679506 3.6132813.9140625.7355334.2060333 1.9264062.5744309 3.2324222.8691406-1.39348.8881698-2.6983335 2.0467258-3.7812504 3.5937498l1.6367188 1.148438c4.0245446-5.7493498 11.8033366-5.5156253 14.6484376-5.5156252h.533203.533203c6.560064 0 11.935281.9682752 15.736328-.0957032 1.237566-.3461119 2.549886-.7467652 3.613281-.9140625 1.063396-.1672972 1.725779-.027174 1.910157.15625v.0019531h.001953c.02245.0222441.062239.0641049.074219.3046876.01197.2405828-.03668.6271824-.134766 1.0820312-.196178.909698-.577011 2.072122-.726563 3.283203-.171483 1.387242.112692 3.000389.396485 5.011719.283745 2.011332.595703 4.392082.595703 7.111328 0 1.252066-.301209 3.767323-.644531 6.154297-.157886 1.097709-.253619 1.685075-.400391 2.628906-.195703-.418527-.375547-.824906-.523437-1.199219-.28322-.716831-.431641-1.348651-.431641-1.583984h-2c0 .764667.249391 1.50116.572266 2.318359.322874.8172.740207 1.688165 1.164062 2.53125.423855.843086.854222 1.658107 1.191406 2.335938.337185.677831.581983 1.270968.615235 1.410156.121186.507144.289363 1.053892.339843 1.496094.050481.442202-.015037.629327-.085937.699219-.19126.188483-.859171.329238-1.921875.162109s-2.370398-.567549-3.603516-.914063c-1.257859-.353597-2.679504-.464315-4.263672-.474609-.758983-.0051-1.554306.013612-2.386718.044922h-.001953c-2.679771.102096-5.737508.332031-9.085938.332031h-.533203-.533203c-6.559663 0-11.936558-.973282-15.7382814.095703-1.2330677.346518-2.5409354.746936-3.6035156.914063-1.0615067.166958-1.7265319.027619-1.9179688-.160156h-.0019531c-.056509-.0564-.106361-.141318-.1269531-.378907-.02072-.239061.0139312-.595593.0976562-.986328.1674498-.781468.5101278-1.631372.6640626-2.40039.1591432-.795717.5177195-1.719448.7792968-2.734375.7083435.781024 1.5506302 1.484709 2.5507813 2.05664l.9941406-1.736328c-2.1466156-1.22753-3.4342159-3.233284-4.1953125-5.292969s-.96875-4.154428-.96875-5.318359c0-2.719246.3119104-5.099999.5957031-7.111328.2837927-2.01133.5679689-3.624477.3964844-5.011719-.149551-1.211081-.5303848-2.373505-.7265625-3.283203-.0980888-.4548488-.1467389-.8414484-.1347656-1.0820312.0119732-.2405831.0517665-.2824431.0742187-.3046876h.0019531v-.0019531c.1382858-.1375704.5458952-.2510863 1.1894532-.2285156z"/></svg>