<svg clip-rule="evenodd" fill-rule="evenodd" height="2048" image-rendering="optimizeQuality" shape-rendering="geometricPrecision" text-rendering="geometricPrecision" viewBox="0 0 2048 2048" width="2048" xmlns="http://www.w3.org/2000/svg"><g fill="#212121"><path d="m936.226 496.271c4.81418-12.3225-1.27087-26.2169-13.5933-31.0311-12.3225-4.81418-26.2169 1.27087-31.0311 13.5933-19.6158 50.237-49.2827 95.1686-86.5796 132.383-37.3701 37.2874-82.3737 66.88-132.582 86.3564-12.3225 4.76339-18.45 18.6154-13.6866 30.9378 4.76339 12.3225 18.6154 18.45 30.9378 13.6866 56.5229-21.9248 107.126-55.18 149.082-97.043 42.0331-41.9398 75.4276-92.4745 97.4528-148.883z" fill-rule="nonzero"/><path d="m936.505 479.677c-4.34882-12.4772-17.9917-19.0666-30.4689-14.7177-12.4772 4.34882-19.0666 17.9917-14.7177 30.4689 8.56654 24.5977 14.5453 49.813 17.9646 75.2552 3.44292 25.6087 4.27087 51.541 2.51575 77.3859-.879922 13.2024 9.11103 24.6201 22.3134 25.5 13.2024.879922 24.6201-9.11103 25.5-22.3134 1.95709-28.826 1.0063-57.9603-2.89134-86.9481-3.84095-28.5721-10.5685-56.928-20.2158-84.6308z" fill-rule="nonzero"/><path d="m1367.02 742.39c12.4264 4.55552 26.1945-1.82362 30.75-14.25 4.55552-12.4264-1.82362-26.1945-14.25-30.75-64.2827-23.6126-122.385-57.1548-171.14-97.9772-48.489-40.5992-87.6473-88.2544-114.327-140.328-6.00591-11.7532-20.4036-16.4114-32.1567-10.4055-11.7532 6.00591-16.4114 20.4036-10.4055 32.1567 29.7366 58.0406 72.9343 110.78 126.138 155.328 52.9394 44.3256 115.883 80.6942 185.391 106.226z" fill-rule="nonzero"/><path d="m921.362 630.443c-10.6134 7.92048-12.7961 22.9488-4.87559 33.5622 7.92048 10.6134 22.9488 12.7961 33.5622 4.87559 28.8673-21.5516 57.8906-50.8701 83.4461-83.0883 25.8414-32.5784 48.2953-68.3351 63.593-102.201 5.43544-12.0626.0625985-26.2512-12-31.6866-12.0626-5.43544-26.2512-.0625985-31.6866 12-13.6807 30.2882-33.9555 62.5099-57.4063 92.0741-23.0421 29.0492-49.0111 55.3359-74.6327 74.4638z" fill-rule="nonzero"/><path d="m1013.71 265.142c108.58 0 206.883 44.0138 278.04 115.171 71.1567 71.1567 115.171 169.46 115.171 278.04 0 108.579-44.0138 206.883-115.171 278.039-71.1567 71.1567-169.46 115.171-278.04 115.171s-206.883-44.0138-278.04-115.171c-71.1567-71.1556-115.171-169.46-115.171-278.039 0-108.58 44.0138-206.883 115.171-278.04 71.1567-71.1567 169.46-115.171 278.04-115.171zm244.102 149.108c-62.4686-62.4686-148.773-101.108-244.102-101.108-95.3292 0-181.634 38.6398-244.102 101.108-62.4686 62.4686-101.108 148.773-101.108 244.102 0 95.328 38.6398 181.634 101.108 244.101 62.4686 62.4686 148.773 101.108 244.102 101.108 95.3292 0 181.634-38.6398 244.102-101.108 62.4686-62.4674 101.108-148.773 101.108-244.101 0-95.3292-38.6398-181.634-101.108-244.102z" fill-rule="nonzero"/><path d="m609.65 479.957c-11.7012-6.16063-26.1839-1.67008-32.3445 10.0311-6.16063 11.7012-1.67008 26.1839 10.0311 32.3445l51.1465 26.8949c11.7012 6.16063 26.1839 1.67008 32.3445-10.0311 6.16063-11.7012 1.67008-26.1839-10.0311-32.3445z" fill-rule="nonzero"/><path d="m423.389 348.14c41.452-12.8811 85.6914-1.33228 124.554 27.9886 36.541 27.5693 68.589 71.3363 88.3359 124.951l.034252-.011811c4.57914 12.4382-1.79173 26.2358-14.2299 30.815-7.86615 2.89607-16.2744 1.41142-22.5532-3.21733-19.0453-11.7862-39.9579-19.6063-61.5107-22.7362-21.1571-3.07205-42.9508-1.64764-64.2107 4.95827-21.2764 6.61182-39.9922 17.7414-55.5768 32.1673-16.3382 15.1228-29.3681 34.0063-38.4414 55.2461l-22.0311-9.3756 22.0701 9.42757c-5.2063 12.1878-19.3099 17.8488-31.4977 12.6425-7.42323-3.17126-12.4252-9.64253-14.0256-16.9713-13.8697-54.9544-12.1949-108.835 2.23583-152.112 15.4193-46.2449 45.3532-80.8784 86.8465-93.7725zm95.6788 66.2398c-26.7177-20.1567-55.8048-28.5095-81.6166-20.4886-25.7705 8.00788-44.9681 31.3335-55.5331 63.0213-6.3567 19.063-9.5693 40.9642-9.27284 64.4445 4.17166-4.65237 8.55709-9.11339 13.1492-13.3642 20.7957-19.2484 45.7004-34.0772 73.9524-42.8563 28.2685-8.78387 57.1205-10.6961 85.0241-6.64489 6.18662.89882 12.3248 2.08937 18.4004 3.56221-13.0394-19.415-28.0772-35.5831-44.1036-47.6741z" fill-rule="nonzero"/><path d="m1589.97 393.891c-25.8118-8.02087-54.8989.33189-81.6166 20.4886-16.0264 12.091-31.063 28.2591-44.1036 47.6741 6.0756-1.47284 12.2126-2.66339 18.3992-3.56221 27.9036-4.05118 56.7556-2.13898 85.0241 6.64489 28.252 8.77914 53.1567 23.6079 73.9524 42.8563 4.59213 4.25079 8.97757 8.71182 13.1492 13.3642.296457-23.4803-2.91614-45.3815-9.27166-64.4445-10.565-31.6878-29.7626-55.0134-55.5331-63.0213zm-110.492-17.7626c38.863-29.3209 83.1024-40.8697 124.554-27.9886 41.4933 12.8941 71.4272 47.5276 86.8465 93.7725 14.4295 43.2768 16.1043 97.1576 2.23465 152.112-1.60039 7.32875-6.60237 13.8-14.0256 16.9713-12.1878 5.2063-26.2914-.454725-31.4977-12.6425l22.0701-9.42757-22.0311 9.3756c-9.07324-21.2398-22.1032-40.1233-38.4414-55.2461-15.5847-14.426-34.3004-25.5555-55.5768-32.1673-21.2599-6.60591-43.0536-8.03032-64.2107-4.95827-21.5528 3.12992-42.4654 10.95-61.5107 22.7362-6.27874 4.62874-14.687 6.11339-22.5532 3.21733-12.4382-4.57914-18.8091-18.3768-14.2299-30.815l.034252.011811c19.7469-53.615 51.7961-97.382 88.3371-124.951z" fill-rule="nonzero"/><path d="m1440.08 522.332c11.7012-6.16063 16.1917-20.6433 10.0311-32.3445-6.16063-11.7012-20.6433-16.1917-32.3445-10.0311l-51.1453 26.8949c-11.7012 6.16063-16.1917 20.6433-10.0311 32.3445 6.16063 11.7012 20.6433 16.1917 32.3445 10.0311z" fill-rule="nonzero"/><path d="m1398.28 1344.98c-4.94055-23.3658-11.9492-45.0992-23.8807-66.391-25.4362-45.3898-61.7788-80.015-111.696-104.345-61.4729-29.9445-143.359-44.7059-248.987-44.7059-99.502 0-180.018 18.0532-241.524 47.6304-66.0438 31.7587-109.965 76.6701-131.587 126.327l-79.1646 299.833h617.705c-9.15473 16.6606-2.43071 44.1567 6.87875 48h-655.189c-2.18386.0437008-4.40788-.210236-6.62363-.794883-12.815-3.38268-20.4614-16.5165-17.0788-29.3315l.0531496.0141732 85.5036-323.841c2.76496-10.474 5.23701-16.1823 10.2295-26.0292 27.6532-54.5268 77.3068-102.997 148.648-137.302 67.8012-32.6044 155.322-52.5059 262.148-52.5059 113.012 0 201.81 16.3713 269.987 49.5815 55.0382 26.8099 96.4489 64.304 126.032 112.699 4.70552 7.69961 8.73898 14.7697 11.9658 22.2106-19.9122 27.6638-20.6126 56.4142-23.4213 78.9508z" fill-rule="nonzero"/><path d="m1175 1126.09c7.19646-11.0799 22.0134-14.2276 33.0933-7.03111 11.0799 7.19646 14.2276 22.0134 7.03111 33.0933-21.4878 32.9362-51.6839 59.4449-86.9741 77.6575-35.0776 18.104-75.1819 28.0831-116.719 28.0831-39.8221 0-78.4134-9.19016-112.55-25.9831-34.2803-16.865-64.0323-41.4768-86.0186-72.2363-7.663-10.7693-5.14489-25.7126 5.62441-33.3756s25.7126-5.14489 33.3756 5.62441c17.2665 24.1559 40.8626 43.5981 68.2052 57.0497 27.4866 13.5213 58.806 20.9209 91.3631 20.9209 33.9366 0 66.4949-8.04686 94.7812-22.6453 28.0772-14.4898 51.9638-35.3705 68.7875-61.1575z" fill-rule="nonzero"/><path d="m1473.11 1437.79c7.97363-3.79607 11.3587-13.3394 7.5626-21.313-3.79607-7.97363-13.3394-11.3587-21.313-7.5626-32.8973 15.6862-52.5638 13.4091-89.0068 9.19016-10.6701-1.23425-22.6358-2.62205-35.9681-3.77008l.0011811-.00826772c-2.13662-.184252-4.21063.0614174-6.13819.66378-23.0126 5.35867-39.2551 23.7532-45.2882 41.9398-2.16142 6.51497-3.10866 13.0902-2.71063 19.1917.466536 7.14213 2.68583 13.8154 6.83504 19.4032 5.29134 7.12678 13.1256 12.0614 23.6906 13.3866-4.23071 8.05985-7.32048 15.1193-9.67796 22.3819-3.64252 11.2252-5.30433 22.1244-6.47363 37.0441l-31.5343 2.33504c-26.8713 1.9878-43.7422 19.9358-50.2666 40.2532-2.65512 8.2689-3.56929 16.9807-2.71654 25.154.918898 8.79213 3.86221 17.1272 8.85827 23.9634 9.60709 13.1469 25.604 20.4272 47.8465 14.9799l46.1374-11.3008c6.72638 9.81142 14.9929 17.8748 24.489 23.987 9.51969 6.12756 20.2288 10.2484 31.8201 12.1642l10.2839 46.5118c6.49961 29.4024 21.4583 45.215 37.8721 50.452 9.10631 2.9067 18.4477 2.53465 27.1134-.611811 8.16733-2.96811 15.6484-8.38583 21.5858-15.7925 13.2508-16.5272 19.2638-43.565 7.0193-74.7379l-12.3862-31.5296c9.80434-6.90945 19.35-15.0756 28.3984-24.3874 5.6504-5.81575 11.1012-12.065 16.2933-18.7205 9.18544 14.5725 20.0079 22.4823 30.711 25.4221 10.7634 2.9563 21.098 1.1126 29.9008-4.1126 8.0126-4.75512 14.6268-12.3673 18.8457-21.5847 8.04804-17.5807 7.60985-41.576-8.9445-62.1532-14.3681-17.8595-25.9831-34.0666-32.7248-51.3603l-14.8748 5.74961 14.9067-5.81221c-.109843-.281103-.227953-.557481-.350788-.829134-6.26812-16.4906-8.38701-34.7764-4.67126-57.8056 1.38071-8.69764-4.55197-16.8697-13.2496-18.2504-8.69764-1.38071-16.8697 4.55197-18.2504 13.2496-4.7067 29.1721-1.85906 52.7115 6.3626 74.2772.103937.328347.218504.656693.346063.982678l.0271654-.0106299.00472441.0106299.0212599-.00826772c8.28308 21.2221 21.4571 39.7701 37.5792 59.8075 7.98898 9.93072 8.43072 21.0095 4.81772 28.9028-1.50709 3.29292-3.64843 5.88189-6.09449 7.33347-1.65236.980316-3.48898 1.35591-5.27717.864568-6.56812-1.80354-14.1165-10.7953-20.8394-31.0063-1.02756-3.87992-3.50551-7.37953-7.21536-9.61182-7.57087-4.55552-17.4036-2.11181-21.9591 5.45906l.0153543.00944883c-8.43898 14.0209-18.0154 26.4083-28.2555 36.9473-10.298 10.598-21.3071 19.3902-32.5276 26.1484-7.18583 3.72166-10.539 12.3508-7.51536 20.0492l.0271654-.0106299 17.1295 43.604c7.50473 19.1043 4.80591 34.4445-2.1437 43.1126-2.26772 2.82874-4.89449 4.81536-7.58741 5.79331-2.19449.796064-4.47756.916536-6.61182.236221-6.39686-2.04095-12.6933-10.3016-16.3736-26.9504l-12.4713-56.4083c-.977954-7.70079-7.44804-13.7504-15.4476-13.9618l-.425197 15.9945.37441-15.9378c-10.441-.276378-19.9394-3.1689-28.0099-8.36339-7.85434-5.05512-14.4496-12.3827-19.3477-21.6992-3.01772-7.08071-10.8024-11.1425-18.5209-9.25158l.0129921.0519685-57.5197 14.0882c-7.54016 1.84606-12.2835.31063-14.5961-2.85473-1.56142-2.1378-2.51457-5.05394-2.85827-8.33977-.407481-3.90473.0437008-8.11418 1.34173-12.1547 2.94449-9.1689 10.3973-17.2583 22.1398-18.1264l44.6327-3.30473c8.27599-.164173 15.1559-6.67914 15.6378-15.0815l-15.9732-.915355 15.9378.875198c1.13858-19.8803 2.29134-31.8343 5.89961-42.9544 3.61536-11.139 10.0665-22.7681 21.7394-41.8288 2.35276-3.30473 3.45945-7.50001 2.76378-11.8217-1.40433-8.72363-9.61536-14.6575-18.339-13.2532l.00826772.0519685-16.5036 2.6563c-5.12599.82441-7.72087.511418-8.4319-.446457-.317717-.427559-.511418-1.27441-.584646-2.40473-.141732-2.16969.238583-4.63583 1.08543-7.19174 2.89016-8.713 10.3559-17.5016 20.8677-20.5158 12.6106 1.12087 23.1709 2.34567 32.6492 3.44173 42.3744 4.90512 65.2394 7.55316 106.383-12.065z" fill-rule="nonzero"/><path d="m1578.4 1396.5c3.31299-2.91614 3.63425-7.9689.718111-11.2819-2.91614-3.31299-7.9689-3.63425-11.2819-.718111-4.68662 4.11969-10.3264 6.76418-16.2425 7.81064-5.96221 1.05354-12.1902.510237-18.0012-1.7504-7.10906-2.76614-12.835-7.77048-16.5555-13.9784-3.71575-6.19843-5.42363-13.6217-4.50827-21.2351.517323-4.38307-2.61732-8.35867-7.0004-8.87599-4.38307-.517323-8.35867 2.61732-8.87599 7.0004-1.3441 11.1744 1.19291 22.1185 6.69567 31.2981 5.49685 9.17127 13.9677 16.5697 24.4949 20.6658 8.61379 3.35079 17.778 4.16811 26.5004 2.62677 8.76969-1.55079 17.1201-5.46378 24.0567-11.5618z" fill-rule="nonzero"/><circle r="12.2398" transform="matrix(-1.12507 -.43775 -.43775 1.12507 1582.69 1342.12)"/><circle r="12.2398" transform="matrix(-1.12507 -.43775 -.43775 1.12507 1537.29 1312.85)"/><path d="m1527.67 1208.11c35.6292-7.82481 71.1119-.438189 99.6686 17.8323 28.5874 18.2882 50.1945 47.4555 58.0371 83.1603 7.82481 35.6292.438189 71.1119-17.8323 99.6686-18.2882 28.5874-47.4555 50.1945-83.1603 58.0371-35.6303 7.82717-71.1119.43937-99.6686-17.8311-28.5874-18.2906-50.1945-47.4579-58.0371-83.1615-7.82481-35.6292-.438189-71.1119 17.8323-99.6686 18.2882-28.5874 47.4555-50.1945 83.1603-58.0371zm82.5449 44.7071c-21.6425-13.8461-48.6201-19.4256-75.7961-13.4575-27.1016 5.95276-49.2083 22.3004-63.0343 43.9111-13.8461 21.6425-19.4256 48.6201-13.4575 75.7961 5.95276 27.1016 22.2992 49.2083 43.9111 63.0355 21.6425 13.8461 48.6189 19.4256 75.7961 13.4563 27.1016-5.95276 49.2083-22.3004 63.0343-43.9111 13.8461-21.6425 19.4256-48.6201 13.4575-75.7961-5.95276-27.1016-22.3004-49.2083-43.9111-63.0343z" fill-rule="nonzero"/><path d="m1524.04 1242.88c2.42717-6.44528-.830316-13.6382-7.2756-16.0654-6.44528-2.42717-13.6382.830316-16.0654 7.2756-3.92126 10.3973-3.43701 21.3933.411024 30.7276 2.7378 6.64252 7.21418 12.4937 13.0642 16.7646 5.92441 4.32638 13.1799 6.98386 21.378 7.15512 5.38937.113386 11.1496-.861024 17.1272-3.18071 1.82362 5.12953 4.45276 9.75119 7.6689 13.7126 4.72678 5.82284 10.728 10.226 17.3445 12.7618 6.85749 2.62795 14.3917 3.26339 21.9213 1.44095 1.6748-.405118 3.33898-.929528 4.98426-1.58032 1.04764 2.82047 2.37166 5.45197 3.92953 7.89095 3.43819 5.38347 7.90394 9.69213 12.9945 12.9248 4.89567 3.10748 10.4658 5.2689 16.3122 6.47245 12.815 2.63504 27.0449.420473 38.2488-6.73465 5.79685-3.69449 7.50237-11.3906 3.80788-17.1874-3.69449-5.79685-11.3906-7.50237-17.1874-3.80788-5.68347 3.62953-13.0925 4.71378-19.8898 3.31654-2.81457-.578741-5.51693-1.63347-7.91221-3.15355-2.20158-1.39843-4.05945-3.14292-5.37874-5.20985-2.43662-3.81614-3.46181-9.16418-2.19685-16.1445 1.46102-5.15079-.522048-10.8626-5.25473-13.9146-5.80158-3.74055-13.5402-2.07047-17.2807 3.73111l10.5059 6.77481-10.4976-6.73819c-3.46299 5.37166-7.33229 8.24292-11.0457 9.14056-2.36575.571654-4.84016.33189-7.17402-.562205-2.57481-.986221-4.96181-2.7626-6.8941-5.1437-3.34252-4.11851-5.30433-10.0264-4.74095-16.9795.334252-3.20788-.565748-6.54331-2.77559-9.23268-4.38307-5.33386-12.261-6.10394-17.5949-1.72087l7.93701 9.65788-7.90985-9.61891c-7.22481 5.93741-13.5095 8.28898-18.5599 8.18268-2.81339-.0590552-5.26063-.938977-7.2189-2.36929-2.03504-1.48583-3.63662-3.62599-4.66418-6.12048-1.54488-3.74764-1.72323-8.20631-.11811-12.4654z" fill-rule="nonzero"/><path d="m1476.5 1185.63c-3.9626-4.58032-10.8898-5.07993-15.4701-1.11732-4.58032 3.9626-5.07993 10.8898-1.11732 15.4701l30.2327 35.0469c3.9626 4.58032 10.8898 5.07993 15.4701 1.11732 4.58032-3.9626 5.07993-10.8898 1.11732-15.4701z" fill-rule="nonzero"/><path d="m1521.6 1183.02c1.66063-5.83701-1.72559-11.9185-7.5626-13.5791-5.83701-1.66063-11.9185 1.72559-13.5791 7.5626l-12.7606 44.491c-1.66063 5.83701 1.72559 11.9185 7.5626 13.5791 5.83701 1.66063 11.9185-1.72559 13.5791-7.5626z" fill-rule="nonzero"/><path d="m1723.71 1319.31c6.05079-.259843 10.7445-5.37874 10.4847-11.4295-.259843-6.05079-5.37874-10.7445-11.4295-10.4847l-46.2355 2.12126c-6.05079.259843-10.7445 5.37874-10.4847 11.4295.259843 6.05079 5.37874 10.7445 11.4295 10.4847z" fill-rule="nonzero"/><path d="m1712.55 1274.04c3.08504-5.22048 1.35354-11.9551-3.86693-15.0402-5.22048-3.08504-11.9551-1.35354-15.0402 3.86693l-23.5512 39.8445c-3.08504 5.22048-1.35354 11.9551 3.86693 15.0402 5.22048 3.08504 11.9551 1.35354 15.0402-3.86693z" fill-rule="nonzero"/></g><path d="m0 0h2048v2048h-2048z" fill="none"/></svg>