<svg height="24" viewBox="0 0 24 24" width="24" xmlns="http://www.w3.org/2000/svg"><path d="m3 5v12.0096118h18v-12.0096118zm1.68617709 13.0096118h-2.18617709c-.27614237 0-.5-.2238576-.5-.5v-13.0096118c0-.27614237.22385763-.5.5-.5h19c.2761424 0 .5.22385763.5.5v13.0096118c0 .2761424-.2238576.5-.5.5h-2.1861771l.4951941.9903882h1.690983c.2761424 0 .5.2238576.5.5s-.2238576.5-.5.5h-1.9891677c-.006973.0001463-.013938.0001458-.020891 0h-1.9899413c-.2761424 0-.5-.2238576-.5-.5s.2238576-.5.5-.5h1.190983l-.4951941-.9903882h-12.39157782l-.49519409.9903882h1.19098301c.27614237 0 .5.2238576.5.5s-.22385763.5-.5.5h-1.98994129c-.00695298.0001458-.01391802.0001463-.02089065 0h-1.98916806c-.27614237 0-.5-.2238576-.5-.5s.22385763-.5.5-.5h1.69098301z"/></svg>