<svg viewBox="0 0 1024 1056.923" xmlns="http://www.w3.org/2000/svg"><path d="M693.203 740.804H648.68v-569.79c-.002-.29-.004-.635-.004-.98 0-57.382 46.393-103.93 103.716-104.18h.024c57.348.25 103.742 46.798 103.742 104.18 0 .393-.002.784-.006 1.175v-.06l-44.52-.49c0-32.704-26.512-59.215-59.215-59.215s-59.214 26.51-59.214 59.214v570.144zm-326.79 0h-44.52V170.926c-.002-.133-.002-.29-.002-.447 0-57.58 46.515-104.298 104.018-104.625h.254c57.31.3 103.653 46.828 103.653 104.18 0 .392-.002.783-.006 1.174v-.06l-44.522-.49c0-32.826-26.61-59.437-59.437-59.437s-59.436 26.61-59.436 59.437zm304.53-426.518h-326.79v-44.522h326.79zm0 203.91h-326.79v-44.522h326.79zm-449.225-244.87H17.808v-44.522h203.91zm775.57 0h-203.91v-44.522h203.91zM629.314 743.03c-47.617-.116-90.756-19.19-122.287-50.072l.03.03c-31.494 30.78-74.624 49.77-122.19 49.77s-90.696-18.99-122.223-49.802l.033.033c-31.57 30.798-74.775 49.796-122.418 49.796-57.155 0-107.924-27.342-139.94-69.66l-.32-.44 35.617-26.712c24.137 31.866 62.003 52.24 104.626 52.24s80.49-20.374 104.39-51.914l.236-.326 17.808-23.73 17.81 23.73c24.05 31.86 61.846 52.24 104.402 52.24s80.354-20.38 104.165-51.91l.238-.33 17.81-23.864 17.808 23.953c23.956 31.976 61.756 52.45 104.338 52.45S709.63 678.04 733.343 646.4l.242-.337 17.81-23.953 17.808 23.864c24.05 31.86 61.847 52.24 104.403 52.24s80.354-20.38 104.165-51.91l.24-.33 35.616 26.713c-32.25 42.74-82.942 70.077-140.02 70.077-47.552 0-90.672-18.974-122.203-49.763l.034.034c-31.476 30.805-74.56 49.858-122.096 49.998h-.026zm0 244.87c-47.617-.116-90.756-19.19-122.287-50.072l.03.03c-31.494 30.78-74.624 49.77-122.19 49.77s-90.696-18.99-122.223-49.802l.033.033c-31.57 30.798-74.775 49.796-122.418 49.796-57.155 0-107.924-27.342-139.94-69.66l-.32-.44 35.617-26.712c24.137 31.866 62.003 52.24 104.626 52.24s80.49-20.374 104.39-51.914l.236-.326 17.808-23.73 17.81 23.73c24.05 31.86 61.846 52.24 104.402 52.24s80.354-20.38 104.165-51.91l.238-.33 17.81-23.864 17.808 23.953c23.956 31.976 61.756 52.45 104.338 52.45s80.382-20.473 104.095-52.112l.242-.337 17.81-23.953 17.808 23.864c24.05 31.86 61.847 52.24 104.403 52.24s80.354-20.38 104.165-51.91l.24-.33 35.616 26.713c-32.25 42.74-82.942 70.077-140.02 70.077-47.552 0-90.672-18.974-122.203-49.763l.034.034c-31.476 30.805-74.56 49.858-122.096 49.998h-.026z"/></svg>