<svg fill="none" height="400" viewBox="0 0 400 400" width="400" xmlns="http://www.w3.org/2000/svg"><g stroke="#000" stroke-linecap="round" stroke-linejoin="round" stroke-opacity=".9"><path d="m168.47 130.444c33.014-33.9083 87.341 32.398 47.599 58.731-28.908 19.155-66.044-11.186-50.334-42.419" stroke-width="16"/><path d="m117 296c54.842 8.184 91 7 151 0" stroke-width="16"/><path d="m214 294 9-79" stroke-width="16"/><path d="m268 289-5.139-234m-142.861 234 6.167-234" stroke-width="8"/><g stroke-width="16"><path d="m167.207 217.831c-.03 26.802 7.511 52.166 7.511 78.844"/><path d="m214 302c19.545 10.039 28.184 14.897 36.5 20s45.516 21.987 51.5 23"/><path d="m175 302c-17.324 10.039-27.241 13.77-34.613 18.873-7.371 5.104-38.083 23.114-43.387 24.127"/><path d="m167 215c-14 8.5-32 14-49 14"/><path d="m223 215c16.5 19.5 37.784 12.926 47 6.624"/></g></g></svg>