<?xml version="1.0" encoding="UTF-8"?>
<svg id="Layer_1" data-name="Layer 1" xmlns="http://www.w3.org/2000/svg" viewBox="0 0 512 324.62">
  <defs>
    <style>
      .cls-1 {
        fill: none;
      }
    </style>
  </defs>
  <path class="cls-1" d="m503.56,92.95v36.13c0,46.68-110.84,84.51-247.56,84.51-47.91,0-92.64-4.65-130.53-12.69-70.26-14.9-117.04-41.49-117.04-71.81v-36.13h495.13Z"/>
  <g>
    <path class="cls-1" d="m170.48,208.41v93.7c0,7.76-6.3,14.07-14.07,14.07s-14.07-6.3-14.07-14.07v-97.94l28.13,4.24Z"/>
    <path class="cls-1" d="m52.89,177.41v59.44c0,7.76-6.3,14.07-14.07,14.07s-14.07-6.3-14.07-14.07v-77.52l28.13,18.08Z"/>
    <path class="cls-1" d="m487.24,159.32v77.53c0,7.76-6.3,14.07-14.07,14.07s-14.07-6.3-14.07-14.07v-59.44l28.13-18.09Z"/>
    <path class="cls-1" d="m369.66,204.17v97.94c0,7.76-6.3,14.07-14.07,14.07s-14.07-6.3-14.07-14.07v-93.71l28.13-4.23Z"/>
  </g>
  <path class="cls-1" d="m24.76,159.33l28.13,18.08v28.13c-11.41-5.57-20.9-11.64-28.13-18.08v-28.13Z"/>
  <path class="cls-1" d="m142.35,204.17l28.13,4.24v28.12c-9.68-1.21-19.06-2.63-28.13-4.24v-28.12Z"/>
  <path class="cls-1" d="m341.52,208.4l28.13-4.23v28.13c-9.06,1.61-18.45,3.03-28.13,4.23v-28.13Z"/>
  <path class="cls-1" d="m487.24,159.32v28.13c-7.23,6.45-16.72,12.51-28.13,18.09v-28.13l28.13-18.09Z"/>
  <path class="cls-1" d="m125.47,92.95v107.95c-70.26-14.9-117.04-41.49-117.04-71.81v-36.13h117.04Z"/>
  <ellipse class="cls-1" cx="256" cy="92.94" rx="247.56" ry="84.51"/>
  <path class="cls-1" d="m461.58,92.95c0,32.05-92.04,58.04-205.57,58.04-22.97,0-45.04-1.07-65.67-3.03-81.33-7.73-139.91-29.45-139.91-55.01,0-32.06,92.05-58.04,205.58-58.04,13.9,0,27.48.39,40.6,1.14,94.1,5.31,164.98,28.77,164.98,56.9h0Z"/>
  <path class="cls-1" d="m461.58,92.95c0,32.05-92.04,58.04-205.57,58.04-22.97,0-45.04-1.07-65.67-3.03,247.73-58.78,108.61-111.05,106.27-111.92,94.09,5.31,164.97,28.77,164.97,56.9h0Z"/>
  <path d="m433.78,25.2C386.17,8.95,323.03,0,256,0S125.83,8.95,78.22,25.2C27.78,42.42,0,66.48,0,92.94v36.14c0,11.87,5.61,23.26,16.32,33.76v74.01c0,12.41,10.1,22.51,22.5,22.51s22.51-10.1,22.51-22.51v-46.4c5.31,2.21,10.94,4.35,16.89,6.38,16.8,5.73,35.54,10.55,55.69,14.4v90.89c0,12.41,10.1,22.51,22.51,22.51s22.51-10.1,22.51-22.51v-84.2c24.6,2.7,50.53,4.11,77.08,4.11s52.48-1.41,77.08-4.11v84.2c0,12.41,10.1,22.51,22.51,22.51s22.51-10.1,22.51-22.51v-90.89c20.15-3.84,38.89-8.66,55.68-14.4,17.97-6.13,33.04-13.14,45.03-20.81v60.83c0,3.1-2.52,5.63-5.63,5.63s-5.63-2.52-5.63-5.63v-31.3c0-4.66-3.78-8.44-8.44-8.44s-8.44,3.78-8.44,8.44v31.3c0,12.41,10.1,22.51,22.51,22.51s22.51-10.1,22.51-22.51v-74.02c10.71-10.5,16.32-21.88,16.32-33.75v-36.14c0-26.46-27.78-50.52-78.22-67.74h0ZM44.46,236.85c0,3.1-2.52,5.63-5.63,5.63s-5.63-2.52-5.63-5.63v-60.83c3.49,2.23,7.24,4.42,11.25,6.53v54.29h0Zm117.59,65.26c0,3.1-2.52,5.63-5.63,5.63s-5.63-2.52-5.63-5.63v-87.95c3.71.59,7.46,1.14,11.25,1.66v86.29h0Zm199.17,0c0,3.1-2.52,5.63-5.63,5.63s-5.63-2.52-5.63-5.63v-86.29c3.79-.52,7.54-1.08,11.25-1.66v87.95h0Zm67.11-121.26c-45.9,15.67-107.1,24.3-172.33,24.3s-126.42-8.63-172.33-24.3c-41.83-14.28-66.79-33.63-66.79-51.77v-1.77c7.19,6.91,15.71,12.59,23.6,16.99,4.07,2.27,9.21.82,11.48-3.25,2.27-4.07.82-9.21-3.25-11.48-26.31-14.7-31.83-28.03-31.83-36.62,0-18.14,24.97-37.49,66.79-51.77,45.9-15.67,107.1-24.3,172.33-24.3s126.42,8.63,172.33,24.3c41.83,14.28,66.8,33.63,66.8,51.77s-24.97,37.49-66.79,51.77c-45.9,15.67-107.1,24.3-172.33,24.3-69.49,0-135.75-10.1-181.78-27.71-4.35-1.66-9.23.51-10.9,4.87s.51,9.23,4.87,10.9c47.88,18.32,116.34,28.83,187.81,28.83,67.03,0,130.17-8.95,177.78-25.2,27.43-9.36,48.14-20.75,61.34-33.45v1.84c0,18.14-24.97,37.49-66.8,51.76Z"/>
  <path d="m256,159.43c55.67,0,108.11-6.15,147.66-17.32,43.41-12.26,66.36-29.26,66.36-49.16s-22.61-36.65-65.39-48.89c-4.48-1.28-9.15,1.31-10.43,5.79-1.28,4.48,1.31,9.15,5.79,10.43,24.52,7.01,53.15,19.77,53.15,32.66,0,20.71-75,49.6-197.14,49.6S58.86,113.66,58.86,92.94s75-49.6,197.14-49.6c41.92,0,82.11,3.57,116.22,10.32,4.57.91,9.01-2.07,9.92-6.64s-2.07-9.01-6.64-9.92c-35.17-6.96-76.49-10.64-119.5-10.64-55.67,0-108.11,6.15-147.66,17.32-43.41,12.26-66.36,29.26-66.36,49.16s22.95,36.91,66.36,49.16c39.55,11.17,91.99,17.32,147.66,17.32h0Z"/>
</svg>