<?xml version="1.0" encoding="utf-8"?>
<!-- Generator: Adobe Illustrator 27.5.0, SVG Export Plug-In . SVG Version: 6.00 Build 0)  -->
<svg version="1.1" id="Layer_1" xmlns="http://www.w3.org/2000/svg" xmlns:xlink="http://www.w3.org/1999/xlink" x="0px" y="0px"
	 viewBox="0 0 2085.46 2085.46" style="enable-background:new 0 0 2085.46 2085.46;" xml:space="preserve">
<style type="text/css">
	.st0{fill-rule:evenodd;clip-rule:evenodd;fill:#FFFFFF;}
	.st1{fill:#466A52;}
	.st2{fill:#A74436;}
	.st3{fill-rule:evenodd;clip-rule:evenodd;fill:#A74436;}
	.st4{fill-rule:evenodd;clip-rule:evenodd;fill:#466A52;}
</style>
<g>
	<defs>
		<rect id="SVGID_1_" y="2" width="2083.46" height="2083.46"/>
	</defs>
	<clipPath id="SVGID_00000078744810354459862810000000582336084478726538_">
		<use xlink:href="#SVGID_1_"  style="overflow:visible;"/>
	</clipPath>
</g>
<path class="st0" d="M1042.73,2c575.89,0,1042.73,466.4,1042.73,1041.73s-466.85,1041.73-1042.73,1041.73S0,1619.07,0,1043.73
	S466.85,2,1042.73,2"/>
<path class="st1" d="M1811.35,1443.74c6.02,0,13.31-4.95,21.87-14.85c28.21-31.94,52.93-73.79,74.17-125.54
	c-42.15,31.62-73.53,64.53-94.13,98.7c-6.97,11.18-10.46,21.08-10.46,29.71C1802.79,1439.74,1805.65,1443.74,1811.35,1443.74
	 M1801.36,1453.8c-12.04,0-18.06-6.07-18.06-18.21c0-9.9,4.28-21.72,12.84-35.46c5.39-8.63,12.28-17.81,20.68-27.55
	c8.4-9.74,18.46-20.05,30.19-30.91c20.92-20.44,43.1-38.17,66.56-53.18c5.39-13.42,10.06-26.19,14.02-38.33
	c3.96-12.14,7.37-23.48,10.22-34.02c-2.22,3.83-14.42,18.85-36.61,45.04c-26.94,31.94-45.48,47.91-55.62,47.91
	c-1.27,0-2.22-0.16-2.85-0.48l-14.26-7.67c-4.44-2.56-7.13-5.03-8.08-7.43c-0.95-2.4-1.43-4.87-1.43-7.43
	c0-8.63,2.54-20.92,7.61-36.89c5.07-15.97,13-35.46,23.77-58.46c4.75-10.22,10.14-15.33,16.16-15.33c4.44,0,8.72,3.35,12.84,10.06
	l-20.92,41.68c-14.9,29.39-22.35,49.83-22.35,61.33c0,7.67,2.54,11.5,7.61,11.5c10.14,0,29.16-17.41,57.05-52.23
	c9.19-11.18,17.67-21.96,25.44-32.34c7.77-10.38,14.82-20.52,21.16-30.43c2.22-3.2,5.39-4.79,9.51-4.79
	c7.61,0,11.41,2.87,11.41,8.62c0,1.28-0.48,2.72-1.43,4.31c-2.53,8.94-5.94,19.88-10.22,32.82c-4.28,12.94-9.43,28.19-15.45,45.76
	c10.14-6.07,18.22-9.1,24.25-9.1c2.53,0,3.8,0.64,3.8,1.92c0,3.19-3.96,6.23-11.89,9.1c-3.17,1.28-6.58,2.72-10.22,4.31
	c-3.65,1.6-7.53,3.51-11.65,5.75c-22.19,55.58-48.97,101.42-80.35,137.51C1836.07,1442.94,1818.16,1453.8,1801.36,1453.8z
	 M1759.05,1311.49c-6.34,0-12.12-2.08-17.35-6.23c-5.23-4.15-8.32-8.14-9.27-11.98c-0.95-4.47,4.91-20.44,17.59-47.91l-10.93,15.81
	c-4.75,7.03-9.51,13.26-14.26,18.69c-4.75,5.43-9.19,10.22-13.31,14.37c-12.05,11.5-22.19,16.29-30.43,14.37
	c-19.02-4.47-28.53-15.33-28.53-32.58c0-13.74,6.5-31.3,19.49-52.7c4.12-6.39,9.35-12.78,15.69-19.17
	c6.34-6.39,13.63-12.62,21.87-18.69c21.24-15.65,41.68-23.48,61.33-23.48c12.04,0,23.45,3.19,34.23,9.58
	c3.49,2.55,5.23,5.27,5.23,8.15c0,2.24-0.63,3.35-1.9,3.35c-0.32,0-0.63-0.16-0.95-0.48c-6.65-7.35-15.53-11.02-26.62-11.02
	c-12.99,0-27.1,4.95-42.31,14.85c-15.21,9.9-28.84,23.16-40.89,39.77c-17.12,23.96-25.67,43.44-25.67,58.45
	c0,8.62,3.01,14.05,9.03,16.29c7.61,3.19,23.77-11.02,48.49-42.64c10.14-12.46,18.62-23.64,25.44-33.54
	c6.81-9.9,12.28-18.37,16.4-25.39c1.9-3.51,5.39-5.27,10.46-5.27c9.51,0,14.26,2.88,14.26,8.63c0,0.96-0.16,1.6-0.48,1.92
	c-27.57,44.08-41.36,73.95-41.36,89.6c0,3.83,1.11,5.91,3.33,6.23c6.66,1.92,17.75-3.03,33.28-14.85
	c18.7-14.05,36.29-32.74,52.77-56.06c3.49-4.79,6.65-7.19,9.51-7.19c0.95,0,1.43,0.32,1.43,0.96c0,1.6-1.43,4.63-4.28,9.1
	c-6.65,10.54-14.02,20.44-22.11,29.71c-8.08,9.26-17.04,17.89-26.86,25.87c-13.95,11.82-25.36,19.17-34.23,22.04
	C1764.92,1311.01,1762.22,1311.49,1759.05,1311.49z M1582.19,1314.37c-24.41-5.43-36.61-16.61-36.61-33.54
	c0-4.79,0.79-10.46,2.38-17.01c1.58-6.55,4.12-13.82,7.61-21.8l40.41-91.52c-4.75,0.64-9.98,1.28-15.69,1.92
	c-5.71,0.64-12.04,1.28-19.02,1.92c-1.27,0-1.9-1.12-1.9-3.35c0-4.47,0.79-7.03,2.38-7.67l39.94-5.75l30.9-63.25
	c2.85-5.75,11.73-8.63,26.62-8.63c6.97,0,9.98,0.8,9.03,2.4c-6.97,11.18-14.02,22.44-21.16,33.78
	c-7.13,11.34-14.18,22.6-21.16,33.78c0.95-0.32,3.01-0.64,6.18-0.96c3.17-0.32,7.29-0.64,12.36-0.96c3.8-0.32,7.45-0.56,10.93-0.72
	c3.49-0.16,6.81-0.24,9.98-0.24c13.31,0,19.65,0.64,19.02,1.92c-2.22,2.24-23.77,6.55-64.66,12.94
	c-34.55,65.8-51.82,112.28-51.82,139.43c0,9.9,2.85,15.81,8.56,17.73c4.44,1.28,15.69-4.63,33.76-17.73
	c10.46-7.66,19.97-16.05,28.53-25.15c8.56-9.1,16.32-18.77,23.3-28.99c2.22-3.19,4.28-4.79,6.18-4.79c1.27,0,1.9,0.64,1.9,1.92
	c0,1.28-0.79,3.2-2.38,5.75c-12.05,19.49-28.05,37.85-48.02,55.1C1600.42,1307.82,1587.9,1315.65,1582.19,1314.37z M1459.53,1311.01
	c-18.38-4.15-27.57-11.5-27.57-22.04c0-5.11,6.18-23.16,18.54-54.14c3.49-6.07,8.16-14.93,14.02-26.59
	c5.86-11.66,13.23-25.95,22.11-42.88c1.59-2.56,5.07-3.83,10.46-3.83c4.75,0,9.43,0.72,14.02,2.16c4.6,1.44,6.42,2.8,5.47,4.07
	c-41.84,59.73-62.76,101.1-62.76,124.1c0,6.71,2.22,10.06,6.66,10.06c8.56,0,22.03-6.07,40.41-18.21
	c21.87-15.01,40.25-33.06,55.15-54.14c3.17-5.11,6.34-7.67,9.51-7.67c0.95,0,1.43,0.48,1.43,1.44c0,1.6-1.43,4.63-4.28,9.1
	c-13.95,22.04-33.28,41.53-58,58.45C1482.51,1306.22,1467.46,1312.93,1459.53,1311.01z M1531.32,1138.04
	c-5.07,0.64-10.54,0-16.4-1.92c-5.86-1.92-8.8-4.31-8.8-7.19c0-1.92,0.63-3.91,1.9-5.99c1.27-2.08,2.85-4.23,4.75-6.47
	c5.39-6.71,8.56-10.94,9.51-12.7c0.95-1.76,2.69-2.64,5.23-2.64c7.29,0,12.99,3.51,17.12,10.54c0.32,0.32,0.47,0.96,0.47,1.92
	c0,2.88-1.59,7.03-4.75,12.46C1536.24,1133.73,1533.22,1137.72,1531.32,1138.04z M1380.14,1384.32c-20.28,0-31.85-13.74-34.7-41.21
	c-0.95-9.26-1.43-18.53-1.43-27.79c0-20.44,2.93-42.16,8.8-65.16c5.86-23,13.63-46.64,23.3-70.91c9.67-24.28,20.6-48.71,32.8-73.31
	c12.2-24.6,24.64-48.55,37.32-71.87c2.22-3.51,3.33-6.55,3.33-9.1c0-2.24-0.79-3.35-2.38-3.35c-6.02,0-20.76,10.38-44.21,31.15
	c-12.68,11.18-24.56,23.08-35.66,35.7c-11.09,12.62-21.08,24.52-29.95,35.7c-12.05,15.65-22.27,28.99-30.67,40.01
	c-8.4,11.02-14.82,20.05-19.26,27.07c-5.71,8.62-12.6,19.88-20.68,33.78c-8.08,13.89-17.51,30.27-28.29,49.11
	c-0.32,0.32-4.6,10.22-12.84,29.71c-5.39,13.1-9.83,19.64-13.31,19.64c-5.39-0.64-10.22-2.8-14.5-6.47
	c-4.28-3.67-6.1-7.75-5.47-12.22c1.58-13.74,5.86-31.47,12.84-53.19c6.97-21.72,16.8-47.59,29.48-77.62
	c23.77-57.5,35.66-89.12,35.66-94.87c0-4.15-3.17-6.23-9.51-6.23c-23.14,0-61.33,31.78-114.58,95.35
	c-52.93,63.57-81.77,109.88-86.53,138.95c-0.63,4.47-3.17,8.14-7.61,11.02c-4.44,2.87-9.03,4.31-13.79,4.31
	c-5.07,0-7.61-1.76-7.61-5.27c0-20.12,15.53-62.77,46.59-127.93c23.14-47.91,36.77-76.82,40.89-86.72
	c6.34-15.65,11.41-29.95,15.21-42.88c3.8-12.94,5.71-23.4,5.71-31.38c0-9.26-2.22-15.17-6.66-17.73
	c-4.44-2.56-11.73-3.83-21.87-3.83c-31.38,0-68.14,9.9-110.3,29.71c-12.68,6.07-24.57,13.1-35.66,21.08
	c-11.09,7.99-21.55,17.09-31.38,27.31c-20.92,22.04-31.38,42-31.38,59.89c0,6.07,0.79,11.58,2.38,16.53
	c1.59,4.95,4.75,9.34,9.51,13.18c3.8,3.19,9.43,5.67,16.88,7.43c7.45,1.76,15.61,2.64,24.48,2.64c13.95,0,28.21-1.92,42.79-5.75
	c0.63-0.32,1.59-0.48,2.85-0.48c1.27,0,1.9,0.48,1.9,1.44c0,2.56-2.54,5.19-7.61,7.91c-5.07,2.72-11.49,5.03-19.26,6.95
	c-7.77,1.92-15.93,2.87-24.48,2.87c-16.16,0-31.38-2.72-45.64-8.14c-16.48-6.07-24.72-18.53-24.72-37.37
	c0-14.38,4.6-29.55,13.79-45.52c8.24-14.06,22.03-28.75,41.36-44.08c11.09-8.63,24.48-17.17,40.17-25.64
	c15.69-8.46,32.33-16.05,49.92-22.76c17.59-6.71,35.02-12.06,52.3-16.05c17.27-3.99,33.04-5.99,47.3-5.99
	c27.26,0,40.89,10.22,40.89,30.67c0,10.22-3.96,25.71-11.89,46.48c-7.92,20.76-18.86,45.84-32.81,75.23
	c-9.83,20.76-19.33,41.29-28.53,61.57c-9.19,20.28-18.86,40.81-29,61.57c0.32,0.64,16.8-23.64,49.44-72.83
	c8.24-12.14,18.15-25.15,29.72-39.05c11.57-13.9,25.12-28.35,40.65-43.36c28.21-27.47,49.76-45.36,64.66-53.66
	c8.56-4.79,17.11-7.19,25.67-7.19c12.99,0,19.49,6.71,19.49,20.13c0,4.79-0.63,9.58-1.9,14.38c-7.92,19.48-17.27,43.36-28.05,71.63
	c-10.78,28.27-23.14,61.09-37.08,98.47c-0.63,1.92-0.95,3.19-0.95,3.83c0,0.32,0.16,0.48,0.48,0.48c1.58,0,13.95-18.37,37.08-55.1
	c12.99-21.08,24.17-38.57,33.52-52.47c9.35-13.9,16.72-24.04,22.11-30.43c44.06-54.94,80.03-92.8,107.92-113.56
	c11.41-8.63,25.51-12.94,42.31-12.94c14.26,0,21.39,4.47,21.39,13.41c0,6.71-4.12,15.17-12.36,25.4
	c-30.11,38.33-56.89,90.08-80.35,155.24c-10.78,30.35-19.26,56.46-25.44,78.34c-6.18,21.88-9.27,42.08-9.27,60.61
	c0,16.61,1.66,27.79,4.99,33.54c3.33,5.75,8.16,8.62,14.5,8.62c4.44,0,9.27-0.72,14.5-2.16c5.23-1.44,11.02-3.28,17.35-5.51
	c1.27-0.32,2.3-0.56,3.09-0.72c0.79-0.16,1.51-0.24,2.14-0.24c1.59,0,2.38,0.48,2.38,1.44c0,3.19-4.6,7.19-13.79,11.98
	C1398.84,1381.45,1389.33,1384.32,1380.14,1384.32z M774.92,1311.49c-6.34,0-12.12-2.08-17.35-6.23c-5.23-4.15-8.32-8.14-9.27-11.98
	c-0.95-4.47,4.91-20.44,17.59-47.91l-10.93,15.81c-4.75,7.03-9.51,13.26-14.26,18.69c-4.75,5.43-9.19,10.22-13.31,14.37
	c-12.05,11.5-22.19,16.29-30.43,14.37c-19.02-4.47-28.53-15.33-28.53-32.58c0-13.74,6.5-31.3,19.49-52.7
	c4.12-6.39,9.35-12.78,15.69-19.17c6.34-6.39,13.63-12.62,21.87-18.69c21.24-15.65,41.68-23.48,61.33-23.48
	c12.04,0,23.45,3.19,34.23,9.58c3.49,2.55,5.23,5.27,5.23,8.15c0,2.24-0.63,3.35-1.9,3.35c-0.32,0-0.63-0.16-0.95-0.48
	c-6.65-7.35-15.53-11.02-26.62-11.02c-12.99,0-27.1,4.95-42.31,14.85c-15.21,9.9-28.84,23.16-40.89,39.77
	c-17.12,23.96-25.67,43.44-25.67,58.45c0,8.62,3.01,14.05,9.03,16.29c7.61,3.19,23.77-11.02,48.49-42.64
	c10.14-12.46,18.62-23.64,25.44-33.54s12.28-18.37,16.4-25.39c1.9-3.51,5.39-5.27,10.46-5.27c9.51,0,14.26,2.88,14.26,8.63
	c0,0.96-0.16,1.6-0.48,1.92c-27.57,44.08-41.36,73.95-41.36,89.6c0,3.83,1.11,5.91,3.33,6.23c6.66,1.92,17.75-3.03,33.28-14.85
	c18.7-14.05,36.29-32.74,52.77-56.06c3.49-4.79,6.65-7.19,9.51-7.19c0.95,0,1.43,0.32,1.43,0.96c0,1.6-1.43,4.63-4.28,9.1
	c-6.65,10.54-14.02,20.44-22.11,29.71c-8.08,9.26-17.04,17.89-26.86,25.87c-13.95,11.82-25.36,19.17-34.23,22.04
	C780.78,1311.01,778.09,1311.49,774.92,1311.49z M614.7,1202.73c11.41-8.63,20.92-17.25,28.53-25.88l28.05-33.54
	c25.99-30.98,38.99-53.82,38.99-68.52c0-2.88-1.58-4.31-4.75-4.31c-5.39,0-13.95,7.83-25.67,23.48
	c-3.49,5.11-7.13,10.06-10.93,14.85c-3.8,4.79-7.61,9.74-11.41,14.85c-4.75,7.03-9.11,13.89-13.07,20.6
	c-3.96,6.71-7.69,13.58-11.17,20.6c-0.95,1.28-2.93,5.11-5.94,11.5C624.29,1182.76,620.09,1191.55,614.7,1202.73z M605.19,1315.33
	c-22.5-4.79-33.75-15.33-33.75-31.62c0-9.58,3.01-23.48,9.03-41.68c4.44-13.74,10.54-29.47,18.3-47.2
	c7.77-17.73,17.51-37.45,29.24-59.18c28.21-53.34,49.6-81.13,64.18-83.37c1.27-0.32,3.33-0.48,6.18-0.48
	c15.53,0,23.3,7.35,23.3,22.04c0,20.12-16.8,48.71-50.4,85.77c-18.7,21.08-39.3,39.77-61.8,56.06
	c-13.31,31.94-19.97,55.42-19.97,70.43c0,9.9,3.01,15.81,9.03,17.73c4.75,1.28,15.85-4.47,33.28-17.25
	c19.97-14.69,37.08-32.58,51.35-53.66c2.22-3.19,4.28-4.79,6.18-4.79c1.27,0,1.9,0.64,1.9,1.92c0,1.28-0.79,3.2-2.38,5.75
	c-12.04,19.49-27.73,38.01-47.07,55.58C623.1,1308.62,610.9,1316.6,605.19,1315.33z M485.86,1311.01
	c-18.38-4.15-27.57-11.5-27.57-22.04c0-5.11,6.18-23.16,18.54-54.14c3.49-6.07,8.16-14.93,14.02-26.59
	c5.86-11.66,13.23-25.95,22.11-42.88c1.59-2.56,5.07-3.83,10.46-3.83c4.75,0,9.43,0.72,14.02,2.16c4.6,1.44,6.42,2.8,5.47,4.07
	c-41.84,59.73-62.76,101.1-62.76,124.1c0,6.71,2.22,10.06,6.66,10.06c8.56,0,22.03-6.07,40.41-18.21
	c21.87-15.01,40.25-33.06,55.15-54.14c3.17-5.11,6.34-7.67,9.51-7.67c0.95,0,1.43,0.48,1.43,1.44c0,1.6-1.43,4.63-4.28,9.1
	c-13.95,22.04-33.28,41.53-58,58.45C508.84,1306.22,493.78,1312.93,485.86,1311.01z M557.65,1138.04c-5.07,0.64-10.54,0-16.4-1.92
	c-5.86-1.92-8.8-4.31-8.8-7.19c0-1.92,0.63-3.91,1.9-5.99c1.27-2.08,2.85-4.23,4.75-6.47c5.39-6.71,8.56-10.94,9.51-12.7
	c0.95-1.76,2.69-2.64,5.23-2.64c7.29,0,12.99,3.51,17.12,10.54c0.32,0.32,0.47,0.96,0.47,1.92c0,2.88-1.59,7.03-4.75,12.46
	C562.56,1133.73,559.55,1137.72,557.65,1138.04z M256.7,1352.7c-4.75,0-9.35-1.28-13.79-3.83c-4.44-2.55-6.65-5.43-6.65-8.62
	c0-8.31,9.03-48.87,27.1-121.7l29.95-121.22c3.17-11.82,4.75-23,4.75-33.54c0-36.1-19.02-54.14-57.05-54.14
	c-6.34,0-13.15,0.48-20.44,1.44c-39.3,5.75-69.57,22.68-90.81,50.79c-18.38,23.64-27.57,51.59-27.57,83.85
	c0,40.25,13.15,60.37,39.46,60.37c20.92,0,46.91-13.58,77.97-40.73c1.9-1.28,3.33-1.92,4.28-1.92c2.22,0,3.33,1.12,3.33,3.35
	c0,1.92-1.11,3.83-3.33,5.75c-36.45,31.94-67.83,47.92-94.14,47.92c-16.8,0-30.11-6.39-39.94-19.17
	c-10.46-14.05-15.69-32.9-15.69-56.54c0-34.82,13.31-66.12,39.94-93.91c30.11-31.3,68.46-48.87,115.05-52.71
	c2.22-0.32,4.28-0.48,6.18-0.48c1.9,0,3.96,0,6.18,0c26.94,0,47.23,7.83,60.85,23.48c11.73,13.1,17.59,30.67,17.59,52.7
	c0,4.79-0.24,9.58-0.71,14.38c-0.48,4.79-1.35,9.58-2.62,14.38l-24.72,95.35c-13.63,53.98-23.61,98.07-29.95,132.24l12.36-11.98
	c9.19-9.26,24.25-25.47,45.17-48.63c20.92-23.16,47.54-53.11,79.87-89.84c25.04-28.11,46.83-51.67,65.37-70.67
	c18.54-19.01,34.15-33.46,46.83-43.36c31.7-25.24,53.88-37.85,66.56-37.85c7.93,0,12.84,7.03,14.74,21.08v1.44
	c-1.27-4.79-5.23-7.19-11.89-7.19c-8.56,0-20.6,4.47-36.13,13.42c-12.68,7.03-30.03,21.4-52.06,43.12
	c-22.03,21.72-48.89,50.63-80.59,86.72c-40.57,46.32-73.14,83.13-97.7,110.44c-24.56,27.31-41.28,45.12-50.16,53.43
	C262.73,1351.9,260.19,1352.7,256.7,1352.7z"/>
<path class="st2" d="M1542.3,1511.38c-2.4,0-4.59-0.69-6.58-2.06c-1.98-1.38-3.15-2.7-3.51-3.97c-0.36-1.48,1.86-6.77,6.67-15.87
	l-4.15,5.24c-1.8,2.33-3.6,4.39-5.41,6.19c-1.8,1.8-3.48,3.38-5.04,4.76c-4.57,3.81-8.41,5.4-11.53,4.76
	c-7.21-1.48-10.81-5.08-10.81-10.79c0-4.55,2.46-10.37,7.39-17.46c1.56-2.11,3.54-4.23,5.95-6.35c2.4-2.12,5.17-4.18,8.29-6.19
	c8.05-5.19,15.8-7.78,23.25-7.78c4.56,0,8.89,1.06,12.98,3.17c1.32,0.85,1.98,1.74,1.98,2.7c0,0.74-0.24,1.11-0.72,1.11
	c-0.12,0-0.24-0.05-0.36-0.16c-2.52-2.43-5.89-3.65-10.09-3.65c-4.93,0-10.27,1.64-16.04,4.92c-5.76,3.28-10.93,7.67-15.5,13.17
	c-6.49,7.93-9.73,14.39-9.73,19.36c0,2.86,1.14,4.65,3.43,5.4c2.88,1.06,9.01-3.65,18.38-14.12c3.84-4.13,7.06-7.83,9.64-11.11
	c2.58-3.28,4.66-6.08,6.22-8.41c0.72-1.16,2.04-1.74,3.97-1.74c3.6,0,5.4,0.95,5.4,2.86c0,0.32-0.06,0.53-0.18,0.63
	c-10.45,14.6-15.68,24.49-15.68,29.67c0,1.27,0.42,1.96,1.26,2.06c2.52,0.64,6.73-1,12.61-4.92c7.09-4.65,13.76-10.84,20-18.57
	c1.32-1.59,2.52-2.38,3.61-2.38c0.36,0,0.54,0.11,0.54,0.32c0,0.53-0.54,1.54-1.62,3.02c-2.52,3.49-5.32,6.77-8.38,9.84
	c-3.07,3.07-6.46,5.93-10.18,8.57c-5.29,3.92-9.61,6.35-12.97,7.3C1544.52,1511.22,1543.5,1511.38,1542.3,1511.38 M1440.95,1516.14
	c-0.48,0-0.72-0.16-0.72-0.48c0-1.38,4.08-3.92,12.25-7.62c2.04-0.85,3.9-1.72,5.59-2.62c1.68-0.9,3.12-1.72,4.32-2.46
	c7.33-4.76,10.99-8.89,10.99-12.38c0-2.64-2.94-3.97-8.83-3.97c-13.7-0.21-20.54-2.86-20.54-7.93c0-2.22,1.08-4.34,3.25-6.35
	c2.52-2.54,6.73-4.97,12.61-7.3c6.37-2.54,12.2-3.81,17.48-3.81c4.69,0,8.23,1.01,10.63,3.02c1.08,0.95,1.62,2.11,1.62,3.49
	c0,1.48-0.54,2.8-1.62,3.97c-1.08,1.16-2.28,1.74-3.6,1.74c-2.4,0-3.72-1.43-3.97-4.28c0-2.01-0.36-3.17-1.08-3.49
	c-0.72-0.32-2.64-0.48-5.77-0.48c-3.96,0-8.41,1.16-13.33,3.49c-5.89,2.65-8.65,5.82-8.29,9.52c0.24,2.11,4.8,3.17,13.7,3.17
	c12.13,0,18.2,2.59,18.2,7.78c0,5.61-5.23,11.21-15.68,16.82c-6.61,3.6-14.66,6.77-24.15,9.52
	C1442.69,1515.93,1441.67,1516.14,1440.95,1516.14z M1392.76,1508.84c5.29,0,11.35-3.33,18.2-10c6.97-6.66,11.11-13.12,12.43-19.36
	c0.12-0.53,0.21-0.98,0.27-1.35c0.06-0.37,0.09-0.71,0.09-1.03c0-0.64-0.12-1.27-0.36-1.91c-2.28,0.11-4.62,0.16-7.03,0.16
	c-2.4,0-4.81,0-7.21,0c-2.4,0-4.59,0-6.58,0c-1.98,0-3.75-0.05-5.31-0.16c-4.81,5.71-7.81,10.31-9.01,13.81
	c-1.44,3.91-2.16,7.67-2.16,11.27C1386.09,1505.98,1388.31,1508.84,1392.76,1508.84z M1422.49,1472.34
	c-1.92-2.64-5.71-3.97-11.36-3.97c-4.32,0-7.15,0.42-8.47,1.27c-0.36,0.11-0.72,0.32-1.08,0.63c-0.36,0.32-0.78,0.69-1.26,1.11
	C1407.06,1472.13,1414.45,1472.45,1422.49,1472.34z M1392.22,1511.38c-8.77,0-13.15-4.76-13.15-14.28c0-9.52,4.32-18.62,12.97-27.3
	c0.12-0.11,0.06-0.5-0.18-1.19c-0.24-0.69-0.36-1.19-0.36-1.51c0-0.64,0.24-1.11,0.72-1.43c4.2-2.96,9.13-4.44,14.77-4.44
	c1.56,0,2.82,0.27,3.79,0.79c1.2,0.42,2.34,0.85,3.42,1.27c1.08,0.42,2.1,0.9,3.06,1.43c4.57,2.43,7.75,4.97,9.55,7.62
	c3-0.11,5.53-0.21,7.57-0.32c2.04-0.11,3.61-0.21,4.68-0.32h0.72c1.08,0,1.62,0.37,1.62,1.11c0,0.21-0.24,0.37-0.72,0.48
	c-1.32,0.21-3.04,0.48-5.14,0.79c-2.1,0.32-4.66,0.63-7.66,0.95c0.36,0.74,0.54,1.59,0.54,2.54c0,0.74-0.06,1.27-0.18,1.59
	c-1.8,8.57-6.54,16.08-14.23,22.53C1406.58,1508.15,1399.31,1511.38,1392.22,1511.38z M1322.22,1507.09c3.72,0,8.71-1.8,14.96-5.4
	c3.24-1.8,6.19-3.76,8.83-5.87c2.64-2.11,4.93-4.34,6.85-6.66c7.93-9.42,11.89-16.19,11.89-20.31c0-1.59-0.78-2.38-2.34-2.38
	c-4.44,0-12.98,5.45-25.59,16.35c-11.77,10.58-17.66,17.88-17.66,21.9C1319.16,1506.3,1320.18,1507.09,1322.22,1507.09z
	 M1324.39,1512.17c-4.69,0-8.29-1.74-10.81-5.24c-0.12-0.1-0.18-0.48-0.18-1.11c0-2.54,1.86-7.78,5.59-15.71
	c1.68-3.6,3.39-7.01,5.14-10.24c1.74-3.23,3.51-6.32,5.31-9.28c10.09-16.4,19.22-29.36,27.39-38.88c1.92-2.11,5.59-2.96,10.99-2.54
	c1.2,0.11,1.8,0.58,1.8,1.43c0,1.16-0.42,1.96-1.26,2.38c-9.85,6.66-23.01,24.23-39.47,52.68c0.6-0.53,1.92-1.69,3.97-3.49
	c2.04-1.8,4.93-4.28,8.65-7.46c9.37-7.93,16.16-11.9,20.36-11.9c0.84,0.21,1.98,0.4,3.42,0.56c1.44,0.16,3.12,0.34,5.05,0.56
	c2.16,0,3.24,1.27,3.24,3.81c0,7.09-4.68,15.5-14.06,25.23c-4.8,4.97-10.27,9.26-16.4,12.86
	C1336.04,1510.06,1329.79,1512.17,1324.39,1512.17z M1258.36,1511.54c-1.68,0-2.53-0.48-2.53-1.43c0-0.11,0.12-0.48,0.36-1.11
	c5.65-9.52,12.31-23.11,20-40.78c0.84-1.9,2.29-3.57,4.33-5c2.04-1.43,3.78-2.14,5.22-2.14c1.56,0,2.22,0.74,1.98,2.22
	c-1.2,2.22-2.64,5.08-4.33,8.57c-1.68,3.49-3.66,7.56-5.94,12.22c3.36-3.91,8.35-8.31,14.96-13.17c3.36-2.43,6.28-4.44,8.74-6.03
	c2.46-1.59,4.54-2.75,6.22-3.49c1.68-0.74,3.54-1.11,5.58-1.11c2.4,0,4.44,0.53,6.13,1.59c1.68,1.06,2.52,2.27,2.52,3.65
	c0,0.85-0.45,1.77-1.35,2.78c-0.9,1.01-1.83,1.51-2.79,1.51c-0.48,0-1.47-0.45-2.97-1.35c-1.5-0.9-3.09-1.35-4.78-1.35
	c-1.8,0-3.9,0.48-6.31,1.43c-15.26,6.03-28.41,19.62-39.46,40.78C1263.22,1510.8,1261.36,1511.54,1258.36,1511.54z M1234.31,1511.38
	c-2.4,0-4.59-0.69-6.58-2.06c-1.98-1.38-3.15-2.7-3.51-3.97c-0.36-1.48,1.86-6.77,6.67-15.87l-4.15,5.24
	c-1.8,2.33-3.61,4.39-5.41,6.19c-1.8,1.8-3.49,3.38-5.05,4.76c-4.56,3.81-8.41,5.4-11.53,4.76c-7.21-1.48-10.81-5.08-10.81-10.79
	c0-4.55,2.46-10.37,7.39-17.46c1.56-2.11,3.55-4.23,5.95-6.35c2.4-2.12,5.17-4.18,8.29-6.19c8.05-5.19,15.8-7.78,23.25-7.78
	c4.57,0,8.89,1.06,12.98,3.17c1.32,0.85,1.98,1.74,1.98,2.7c0,0.74-0.24,1.11-0.72,1.11c-0.12,0-0.24-0.05-0.36-0.16
	c-2.52-2.43-5.89-3.65-10.09-3.65c-4.93,0-10.27,1.64-16.04,4.92c-5.76,3.28-10.93,7.67-15.5,13.17
	c-6.49,7.93-9.73,14.39-9.73,19.36c0,2.86,1.14,4.65,3.43,5.4c2.88,1.06,9.01-3.65,18.38-14.12c3.85-4.13,7.06-7.83,9.64-11.11
	c2.58-3.28,4.65-6.08,6.22-8.41c0.72-1.16,2.04-1.74,3.97-1.74c3.6,0,5.4,0.95,5.4,2.86c0,0.32-0.06,0.53-0.18,0.63
	c-10.45,14.6-15.68,24.49-15.68,29.67c0,1.27,0.42,1.96,1.26,2.06c2.52,0.64,6.73-1,12.61-4.92c7.09-4.65,13.76-10.84,20-18.57
	c1.32-1.59,2.52-2.38,3.6-2.38c0.36,0,0.54,0.11,0.54,0.32c0,0.53-0.54,1.54-1.62,3.02c-2.52,3.49-5.32,6.77-8.38,9.84
	c-3.06,3.07-6.46,5.93-10.18,8.57c-5.28,3.92-9.61,6.35-12.97,7.3C1236.53,1511.22,1235.51,1511.38,1234.31,1511.38z
	 M1042.68,1513.92c6.01,0,13.4-3.33,22.17-10c-9.85-7.72-16.7-16.03-20.54-24.91c-0.72-1.59-1.5-2.38-2.34-2.38
	c-1.44,0-3.18,2.17-5.23,6.51c-1.56,3.6-2.82,7.62-3.79,12.06c-0.36,1.69-0.54,3.44-0.54,5.24
	C1032.4,1509.42,1035.83,1513.92,1042.68,1513.92z M1114.4,1514.39c15.62,0,28.89-3.65,39.82-10.95
	c9.37-6.35,14.05-12.7,14.05-19.04c0-3.6-1.65-6.61-4.95-9.05c-3.3-2.43-7.45-4.34-12.44-5.71c-4.98-1.38-10.15-2.38-15.5-3.02
	c-5.35-0.63-10.18-1-14.51-1.11c-4.33-0.11-7.33-0.11-9.01,0c-4.2,4.87-9.61,10.37-16.22,16.5c-6.61,6.13-14.48,12.91-23.61,20.31
	c5.89,4.76,12.49,7.94,19.82,9.52C1099.44,1513.55,1106.95,1514.39,1114.4,1514.39z M1041.6,1518.84c-10.69,0-16.04-6.5-16.04-19.52
	c0-6.77,1.5-13.91,4.51-21.42c2.76-7.19,5.95-12.38,9.55-15.55c2.28-2.01,4.15-3.01,5.58-3.01c1.56,0,2.76,1.3,3.6,3.89
	c0.84,2.59,1.62,5.26,2.34,8.01c3.84,12.17,9.97,21.84,18.38,29.04c10.57-8.68,21.74-20.52,33.52-35.55l-7.57-0.79
	c-3.12-0.64-4.69-1.69-4.69-3.17c0-1.8,1.44-2.54,4.33-2.22c1.32,0.21,2.97,0.37,4.96,0.48c1.98,0.11,4.3,0.21,6.94,0.32
	c3-3.92,5.56-7.41,7.66-10.47c2.1-3.07,3.76-5.76,4.96-8.09c2.28-4.55,5.65-8.73,10.09-12.54c3.96-3.17,7.15-4.76,9.55-4.76
	c1.32,0,1.98,0.64,1.98,1.91c0,2.12-1.74,5.5-5.22,10.16c-2.76,3.91-5.77,7.85-9.01,11.82c-3.24,3.97-6.61,8.01-10.09,12.14
	c6.49-0.32,12.98-1.06,19.46-2.22c6.49-1.17,12.49-2.83,18.02-5c5.52-2.17,10.06-4.95,13.6-8.33c3.54-3.38,5.56-7.51,6.04-12.38
	c0.24-3.07-0.54-5.98-2.34-8.73c-1.8-2.75-4.45-5.29-7.93-7.62c-7.81-5.5-18.62-8.78-32.44-9.84c-3.36-0.32-6.91-0.48-10.63-0.48
	c-18.62,0-35.68,3.33-51.18,10c-15.38,6.56-23.07,13.49-23.07,20.79c0,4.02,3,7.56,9.01,10.63c2.4,0.85,3.6,1.48,3.6,1.91
	c0,0.53-0.96,0.79-2.88,0.79c-3.48,0-6.3-0.37-8.47-1.11c-9.25-4.02-13.88-8.83-13.88-14.44c0-7.94,7.87-15.18,23.61-21.74
	c16.7-6.88,36.1-10.31,58.21-10.31c4.08,0,9.01,0.18,14.77,0.56c5.77,0.37,11.71,1.08,17.84,2.14c6.13,1.06,11.87,2.67,17.21,4.84
	c5.34,2.17,9.7,5.05,13.06,8.65c3.36,3.6,5.05,8.15,5.05,13.65c0,4.34-1.41,8.17-4.24,11.51c-2.82,3.33-6.55,6.21-11.17,8.65
	c-4.63,2.44-9.73,4.47-15.32,6.11c-5.59,1.64-11.17,2.91-16.76,3.81c-5.59,0.9-10.66,1.46-15.23,1.67
	c6.01,0.32,12.37,0.74,19.1,1.27c6.72,0.53,13.06,1.4,19.01,2.62c5.95,1.22,10.81,2.99,14.6,5.32c3.78,2.33,5.68,5.5,5.68,9.52
	c0,4.23-1.17,8.36-3.51,12.38c-2.34,4.02-6.1,7.88-11.27,11.58c-12.13,8.78-28.23,13.17-48.29,13.17c-4.21,0-8.56-0.21-13.07-0.63
	c-4.5-0.42-9.16-1.06-13.96-1.91c-7.69-1.48-14.96-4.87-21.81-10.15C1056.43,1514.6,1047.84,1518.84,1041.6,1518.84z
	 M931.78,1516.14c-0.48,0-0.72-0.16-0.72-0.48c0-1.38,4.08-3.92,12.25-7.62c2.04-0.85,3.9-1.72,5.59-2.62
	c1.68-0.9,3.12-1.72,4.32-2.46c7.33-4.76,10.99-8.89,10.99-12.38c0-2.64-2.94-3.97-8.83-3.97c-13.7-0.21-20.54-2.86-20.54-7.93
	c0-2.22,1.08-4.34,3.25-6.35c2.52-2.54,6.73-4.97,12.61-7.3c6.37-2.54,12.2-3.81,17.48-3.81c4.69,0,8.23,1.01,10.63,3.02
	c1.08,0.95,1.62,2.11,1.62,3.49c0,1.48-0.54,2.8-1.62,3.97c-1.08,1.16-2.28,1.74-3.6,1.74c-2.4,0-3.72-1.43-3.97-4.28
	c0-2.01-0.36-3.17-1.08-3.49c-0.72-0.32-2.65-0.48-5.77-0.48c-3.96,0-8.41,1.16-13.33,3.49c-5.89,2.65-8.65,5.82-8.29,9.52
	c0.24,2.11,4.8,3.17,13.7,3.17c12.13,0,18.2,2.59,18.2,7.78c0,5.61-5.22,11.21-15.68,16.82c-6.61,3.6-14.66,6.77-24.15,9.52
	C933.52,1515.93,932.5,1516.14,931.78,1516.14z M883.59,1508.84c5.29,0,11.35-3.33,18.2-10c6.97-6.66,11.11-13.12,12.44-19.36
	c0.12-0.53,0.21-0.98,0.27-1.35c0.06-0.37,0.09-0.71,0.09-1.03c0-0.64-0.12-1.27-0.36-1.91c-2.29,0.11-4.63,0.16-7.03,0.16
	c-2.4,0-4.81,0-7.21,0c-2.4,0-4.59,0-6.58,0c-1.98,0-3.75-0.05-5.31-0.16c-4.81,5.71-7.81,10.31-9.01,13.81
	c-1.44,3.91-2.16,7.67-2.16,11.27C876.92,1505.98,879.14,1508.84,883.59,1508.84z M913.32,1472.34c-1.92-2.64-5.71-3.97-11.36-3.97
	c-4.32,0-7.15,0.42-8.47,1.27c-0.36,0.11-0.72,0.32-1.08,0.63c-0.36,0.32-0.78,0.69-1.26,1.11
	C897.88,1472.13,905.27,1472.45,913.32,1472.34z M883.04,1511.38c-8.77,0-13.15-4.76-13.15-14.28c0-9.52,4.32-18.62,12.97-27.3
	c0.12-0.11,0.06-0.5-0.18-1.19c-0.24-0.69-0.36-1.19-0.36-1.51c0-0.64,0.24-1.11,0.72-1.43c4.2-2.96,9.13-4.44,14.78-4.44
	c1.56,0,2.82,0.27,3.79,0.79c1.2,0.42,2.34,0.85,3.42,1.27c1.08,0.42,2.1,0.9,3.06,1.43c4.57,2.43,7.75,4.97,9.55,7.62
	c3-0.11,5.53-0.21,7.57-0.32c2.04-0.11,3.61-0.21,4.68-0.32h0.72c1.08,0,1.62,0.37,1.62,1.11c0,0.21-0.24,0.37-0.72,0.48
	c-1.32,0.21-3.04,0.48-5.14,0.79c-2.1,0.32-4.66,0.63-7.66,0.95c0.36,0.74,0.54,1.59,0.54,2.54c0,0.74-0.06,1.27-0.18,1.59
	c-1.8,8.57-6.54,16.08-14.23,22.53C897.4,1508.15,890.13,1511.38,883.04,1511.38z M844.94,1475.36c4.33-2.86,7.93-5.71,10.81-8.57
	l10.63-11.11c9.85-10.26,14.78-17.83,14.78-22.69c0-0.95-0.6-1.43-1.8-1.43c-2.04,0-5.29,2.59-9.73,7.78
	c-1.32,1.69-2.7,3.33-4.15,4.92c-1.44,1.59-2.88,3.23-4.33,4.92c-1.8,2.33-3.45,4.6-4.95,6.82c-1.5,2.22-2.91,4.5-4.24,6.82
	c-0.36,0.42-1.11,1.69-2.25,3.81C848.58,1468.74,846.99,1471.65,844.94,1475.36z M841.34,1512.65c-8.53-1.59-12.8-5.08-12.8-10.47
	c0-3.17,1.14-7.78,3.43-13.81c1.68-4.55,3.99-9.76,6.94-15.63c2.94-5.87,6.64-12.41,11.08-19.6c10.69-17.67,18.8-26.87,24.33-27.61
	c0.48-0.11,1.26-0.16,2.34-0.16c5.89,0,8.83,2.43,8.83,7.3c0,6.66-6.37,16.13-19.1,28.4c-7.09,6.98-14.9,13.17-23.43,18.57
	c-5.05,10.58-7.57,18.35-7.57,23.33c0,3.28,1.14,5.24,3.42,5.87c1.8,0.42,6.01-1.48,12.62-5.71c7.57-4.87,14.05-10.79,19.46-17.77
	c0.84-1.06,1.62-1.59,2.34-1.59c0.48,0,0.72,0.21,0.72,0.64c0,0.42-0.3,1.06-0.9,1.9c-4.57,6.45-10.51,12.59-17.84,18.41
	C848.13,1510.43,843.5,1513.07,841.34,1512.65z M770.62,1511.54c-1.68,0-2.52-0.48-2.52-1.43c0-0.11,0.12-0.48,0.36-1.11
	c5.65-9.52,12.32-23.11,20-40.78c0.84-1.9,2.28-3.57,4.33-5c2.04-1.43,3.78-2.14,5.22-2.14c1.56,0,2.22,0.74,1.98,2.22
	c-1.2,2.22-2.65,5.08-4.33,8.57c-1.68,3.49-3.66,7.56-5.94,12.22c3.36-3.91,8.35-8.31,14.96-13.17c3.36-2.43,6.28-4.44,8.74-6.03
	c2.46-1.59,4.54-2.75,6.22-3.49c1.68-0.74,3.54-1.11,5.59-1.11c2.4,0,4.44,0.53,6.13,1.59c1.68,1.06,2.52,2.27,2.52,3.65
	c0,0.85-0.45,1.77-1.35,2.78c-0.9,1.01-1.83,1.51-2.79,1.51c-0.48,0-1.47-0.45-2.97-1.35c-1.5-0.9-3.09-1.35-4.78-1.35
	c-1.8,0-3.9,0.48-6.31,1.43c-15.26,6.03-28.41,19.62-39.46,40.78C775.49,1510.8,773.63,1511.54,770.62,1511.54z M746.58,1511.38
	c-2.4,0-4.59-0.69-6.58-2.06c-1.98-1.38-3.15-2.7-3.51-3.97c-0.36-1.48,1.86-6.77,6.67-15.87l-4.15,5.24
	c-1.8,2.33-3.6,4.39-5.41,6.19c-1.8,1.8-3.48,3.38-5.04,4.76c-4.57,3.81-8.41,5.4-11.53,4.76c-7.21-1.48-10.81-5.08-10.81-10.79
	c0-4.55,2.46-10.37,7.39-17.46c1.56-2.11,3.54-4.23,5.95-6.35c2.4-2.12,5.17-4.18,8.29-6.19c8.05-5.19,15.8-7.78,23.25-7.78
	c4.56,0,8.89,1.06,12.98,3.17c1.32,0.85,1.98,1.74,1.98,2.7c0,0.74-0.24,1.11-0.72,1.11c-0.12,0-0.24-0.05-0.36-0.16
	c-2.52-2.43-5.89-3.65-10.09-3.65c-4.93,0-10.27,1.64-16.04,4.92c-5.77,3.28-10.93,7.67-15.5,13.17
	c-6.49,7.93-9.73,14.39-9.73,19.36c0,2.86,1.14,4.65,3.43,5.4c2.88,1.06,9.01-3.65,18.38-14.12c3.84-4.13,7.06-7.83,9.64-11.11
	c2.58-3.28,4.66-6.08,6.22-8.41c0.72-1.16,2.04-1.74,3.97-1.74c3.6,0,5.4,0.95,5.4,2.86c0,0.32-0.06,0.53-0.18,0.63
	c-10.45,14.6-15.68,24.49-15.68,29.67c0,1.27,0.42,1.96,1.26,2.06c2.52,0.64,6.73-1,12.62-4.92c7.08-4.65,13.76-10.84,20-18.57
	c1.32-1.59,2.52-2.38,3.61-2.38c0.36,0,0.54,0.11,0.54,0.32c0,0.53-0.54,1.54-1.62,3.02c-2.52,3.49-5.32,6.77-8.38,9.84
	c-3.07,3.07-6.46,5.93-10.18,8.57c-5.29,3.92-9.61,6.35-12.97,7.3C748.8,1511.22,747.78,1511.38,746.58,1511.38z M608.65,1526.3
	c-12.01,0-21.57-3.44-28.65-10.32c-6.49-6.35-9.73-14.39-9.73-24.12c0-7.19,1.86-14.39,5.59-21.58c6.72-12.9,16.43-24.6,29.1-35.07
	c12.67-10.47,28.44-18.99,47.3-25.55c9.01-3.17,17.66-4.76,25.95-4.76c8.17,0,14.78,1.51,19.82,4.52c5.05,3.01,7.57,7.06,7.57,12.14
	c0,2.54-0.45,5.21-1.35,8.01c-0.9,2.8-2.73,5.74-5.5,8.81c-6.61,7.72-14.35,14.02-23.24,18.88c-4.57,2.33-8.8,3.91-12.71,4.76
	c-3.9,0.85-7.6,1.27-11.08,1.27c-8.53,0-13.45-3.6-14.78-10.79v-0.64c0-1.38,0.9-2.06,2.7-2.06c1.68,0,2.58,0.69,2.7,2.06
	c0.96,5.4,4.32,8.09,10.09,8.09c5.65,0,12.13-2.22,19.46-6.66c3.85-2.22,7.33-4.68,10.45-7.38c3.12-2.7,6.01-5.58,8.65-8.65
	c5.65-6.88,8.47-12.64,8.47-17.3c0-7.51-6.06-11.27-18.2-11.27c-8.29,0-16.94,1.8-25.95,5.4c-9.13,3.6-17.6,7.75-25.41,12.46
	c-7.81,4.71-14.96,10.02-21.44,15.95c-9.85,8.99-17.24,18.41-22.17,28.24c-3.61,7.09-5.41,14.18-5.41,21.26
	c0,8.15,2.4,14.65,7.21,19.52c5.65,5.61,13.81,8.41,24.51,8.41c2.28,0,4.68-0.13,7.21-0.4c2.52-0.27,5.17-0.66,7.93-1.19
	c11.41-2.22,24.99-7.67,40.73-16.35c12.25-6.66,21.2-12.32,26.85-16.98c3.84-3.17,6.43-4.76,7.75-4.76c0.24,0,0.36,0.11,0.36,0.32
	c0,0.74-0.78,1.75-2.34,3.02c-5.89,4.55-11.05,8.46-15.5,11.74c-4.44,3.28-8.11,5.82-10.99,7.62c-6.97,4.44-13.84,8.2-20.63,11.27
	c-6.79,3.07-13.48,5.66-20.09,7.78C624.75,1524.87,616.34,1526.3,608.65,1526.3z"/>
<path class="st2" d="M1285.28,1764.91h16.25l-8.13-22.9L1285.28,1764.91z M1306.61,1779.24l-3.43-9.72h-19.55l-3.43,9.72h-5.9
	l16-44.33h6.35l15.93,44.33H1306.61z M1260.9,1734.9h5.84v44.33h-5.84v-20.02h-22.15v20.02h-5.78v-44.33h5.78v19.7h22.15V1734.9z
	 M1203.77,1779.62c-6.31,0-11.62-2.13-15.93-6.4c-4.32-4.26-6.47-9.67-6.47-16.22c0-6.55,2.16-11.94,6.47-16.19
	c4.32-4.24,9.63-6.37,15.93-6.37c4.57,0,8.64,1.09,12.22,3.26c3.58,2.17,6.21,5.31,7.9,9.41h-6.98c-2.62-4.99-7-7.49-13.14-7.49
	c-4.78,0-8.73,1.59-11.84,4.77c-3.11,3.18-4.67,7.39-4.67,12.64c0,5.25,1.56,9.47,4.67,12.67c3.11,3.2,7.06,4.8,11.84,4.8
	c2.92,0,5.52-0.65,7.81-1.95c2.28-1.3,4.06-3.17,5.33-5.6h6.98c-1.69,4.09-4.33,7.23-7.9,9.4
	C1212.41,1778.53,1208.34,1779.62,1203.77,1779.62z M1150.19,1727.99l13.52-8.06v5.37l-13.52,7.17V1727.99z M1140.86,1763.69v-28.79
	h5.84v28.79c0,3.67,0.96,6.41,2.89,8.22c1.93,1.81,4.58,2.72,7.97,2.72s6.05-0.91,8-2.72c1.95-1.81,2.92-4.55,2.92-8.22v-28.79h5.78
	v28.79c0,5.2-1.58,9.17-4.73,11.9c-3.15,2.73-7.15,4.09-12,4.09c-4.85,0-8.84-1.36-11.97-4.09
	C1142.43,1772.86,1140.86,1768.9,1140.86,1763.69z M1106.07,1764.91h16.25l-8.13-22.9L1106.07,1764.91z M1127.4,1779.24l-3.43-9.72
	h-19.55l-3.43,9.72h-5.9l16-44.33h6.35l15.93,44.33H1127.4z M1067.51,1779.62c-6.07,0-11.27-2.13-15.58-6.4
	c-4.32-4.26-6.47-9.67-6.47-16.22c0-6.55,2.16-11.94,6.47-16.19c4.32-4.24,9.63-6.37,15.93-6.37c4.57,0,8.64,1.09,12.22,3.26
	c3.58,2.17,6.21,5.31,7.9,9.41H1081c-2.62-4.99-7-7.49-13.14-7.49c-4.78,0-8.73,1.59-11.84,4.77c-3.11,3.18-4.67,7.39-4.67,12.64
	c0,5.25,1.56,9.47,4.67,12.67c3.11,3.2,6.98,4.8,11.62,4.8s8.36-1.32,11.17-3.97c2.81-2.64,4.45-6.23,4.92-10.75h-18.16v-4.61h24.25
	v4.61c-0.59,5.72-2.94,10.45-7.05,14.2C1078.67,1777.75,1073.58,1779.62,1067.51,1779.62z M993.84,1764.91h16.25l-8.13-22.9
	L993.84,1764.91z M1015.17,1779.24l-3.43-9.72h-19.55l-3.43,9.72h-5.9l16-44.33h6.35l15.93,44.33H1015.17z M951.43,1739.57v16.76
	h8.51c3.17,0,5.53-0.74,7.08-2.21c1.55-1.47,2.32-3.53,2.32-6.17c0-5.59-3.13-8.38-9.4-8.38H951.43z M951.43,1760.94v18.3h-5.78
	v-44.33h14.28c4.95,0,8.73,1.21,11.33,3.65c2.6,2.43,3.9,5.41,3.9,8.92c0,3.52-0.95,6.45-2.86,8.8c-1.91,2.34-4.76,3.82-8.57,4.41
	l12.12,18.55h-7.24l-11.55-18.3H951.43z M912.27,1739.57v16.76h8.51c3.17,0,5.53-0.74,7.08-2.21c1.55-1.47,2.32-3.53,2.32-6.17
	c0-5.59-3.13-8.38-9.4-8.38H912.27z M912.27,1760.94v18.3h-5.78v-44.33h14.28c4.95,0,8.73,1.21,11.33,3.65
	c2.6,2.43,3.9,5.41,3.9,8.92c0,3.52-0.95,6.45-2.86,8.8c-1.91,2.34-4.76,3.82-8.57,4.41l12.12,18.55h-7.24l-11.55-18.3H912.27z
	 M897.73,1734.9v4.61h-17.52v15.1h15.62v4.54h-15.62v15.48h17.52v4.61h-23.3v-44.33H897.73z M841.87,1746.74
	c0,1.62,0.44,2.97,1.33,4.03c0.89,1.07,2.03,1.86,3.43,2.37c1.4,0.51,2.95,0.96,4.67,1.34c1.71,0.38,3.43,0.82,5.14,1.31
	c1.71,0.49,3.27,1.12,4.67,1.89c1.4,0.77,2.54,1.92,3.43,3.45c0.89,1.54,1.33,3.43,1.33,5.69c0,3.46-1.31,6.46-3.94,9.02
	c-2.62,2.56-6.17,3.84-10.63,3.84c-4.47,0-8.09-1.03-10.89-3.1c-2.79-2.07-4.19-4.87-4.19-8.41h6.16c0.17,2,0.96,3.63,2.38,4.86
	c1.42,1.24,3.52,1.86,6.32,1.86c2.79,0,5.01-0.73,6.66-2.18c1.65-1.45,2.48-3.15,2.48-5.08c0-1.94-0.45-3.43-1.33-4.48
	c-0.89-1.04-2.03-1.82-3.43-2.33c-1.4-0.51-2.95-0.95-4.67-1.31c-1.71-0.36-3.43-0.8-5.14-1.31c-1.71-0.51-3.27-1.16-4.67-1.95
	c-1.4-0.79-2.54-1.96-3.43-3.52c-0.89-1.56-1.33-3.49-1.33-5.79c0-3.75,1.32-6.77,3.97-9.05c2.65-2.28,6.09-3.42,10.35-3.42
	c4.25,0,7.64,0.99,10.16,2.98c2.52,1.98,3.97,4.72,4.35,8.22h-6.41c-0.17-1.75-0.98-3.24-2.45-4.48c-1.46-1.24-3.43-1.85-5.9-1.85
	c-2.48,0-4.5,0.63-6.06,1.89C842.65,1742.46,841.87,1744.31,841.87,1746.74z"/>
<path class="st3" d="M1152.39,596.02c9.67-5.23,28.08-15.01,47.74-26.44c19.67-11.43,40.59-24.5,51.13-30.87
	c10.54-6.37,10.71-6.03,8.66-3.16c-2.05,2.87-6.32,8.27-17.66,16.87c-11.34,8.6-29.75,20.41-46.07,29.01
	c-16.32,8.6-30.55,14-39.42,16.99c-8.87,2.99-12.39,3.58-13.68,3.54C1141.8,601.93,1142.72,601.25,1152.39,596.02 M1335.16,563.29
	c0.25-5.47,0.22-16.41,0.2-21.88c-0.02-5.47-0.02-5.47,0.65-5.25c0.67,0.22,2.01,0.66,5.81,1.64c3.8,0.98,10.06,2.52,15.52,3.28
	c5.46,0.77,10.13,0.77,12.48,0.78c2.35,0.02,2.39,0.05,2.53,0.77c0.14,0.71,0.4,2.1,0.42,7.49c0.02,5.4-0.2,14.8-0.69,20.73
	c-0.49,5.93-1.25,8.37-1.63,9.59c-0.38,1.22-0.38,1.22-0.38,1.22s0,0-0.89-0.38c-0.89-0.38-2.66-1.15-6.69-2.79
	c-4.03-1.64-10.33-4.16-14.87-5.78c-4.54-1.62-7.33-2.35-9.34-2.86c-2.01-0.51-3.24-0.8-3.58-0.95
	C1334.37,568.76,1334.91,568.76,1335.16,563.29z M1279.57,549.31c13.65,7.79,40.22,22.82,62.95,34.47
	c22.73,11.65,41.6,19.91,53.51,24.79c11.91,4.88,16.87,6.38,20.75,6.1c3.88-0.28,6.69-2.33,6.71-5.1c0.03-2.77-2.72-6.27-4.32-8.24
	c-1.6-1.97-2.04-2.41-8.64-4.91c-6.6-2.5-19.37-7.04-25.75-9.32c-6.38-2.27-6.38-2.27-6.14-6.6c0.25-4.33,0.74-12.98,0.94-21.13
	c0.19-8.15,0.08-15.81-0.16-19.52c-0.25-3.72-0.63-3.49-1.46-3.22c-0.83,0.28-2.09,0.61-4.84,0.86c-2.75,0.25-6.99,0.42-13.92-1.05
	c-6.93-1.47-16.56-4.57-22.64-6.46c-6.08-1.89-8.61-2.55-10.04-2.3c-1.43,0.25-1.76,1.41-1.6,2.13c0.17,0.72,0.83,1,1.6,1.36
	c0.77,0.36,1.65,0.8,2.17,1.64c0.52,0.83,0.69,2.05,0.85,3.69c0.17,1.64,0.33,3.69,0.47,8.54c0.14,4.85,0.25,12.51,0.14,16.3
	c-0.11,3.8-0.44,3.74-1.51,3.38c-1.07-0.36-2.89-1.03-13.21-5.21c-10.32-4.19-29.14-11.9-39.04-15.67c-9.9-3.77-10.9-3.6-11.03-3.24
	C1265.21,540.96,1265.92,541.52,1279.57,549.31z M1114.12,553.97c-1.04-4.75-1.68-13.56-2.5-22.56c-0.82-9-1.84-18.19-0.92-26.22
	c0.92-8.04,3.77-14.93,5.38-18.12c1.61-3.19,1.99-2.68,2.6-0.99c0.6,1.69,1.42,4.56,1.77,10.15c0.35,5.58,0.22,13.88,0.03,21.02
	c-0.19,7.15-0.44,13.14-0.35,18.82c0.09,5.68,0.54,11.04,0.25,14.99c-0.28,3.96-1.3,6.51-2.53,7.43
	C1116.62,559.43,1115.16,558.73,1114.12,553.97z M1023.96,333.06c1.97-1.98,4.4-6.71,8.5-10.21c4.1-3.5,9.88-5.78,14.74-7.43
	c4.86-1.65,8.79-2.66,10.84-5.02c2.05-2.36,2.22-6.08,0.04-9.41c-2.18-3.33-6.7-6.29-12.73-8.73c-6.03-2.45-13.57-4.39-18.46-6.5
	c-4.9-2.11-7.16-4.39-7.87-7.51c-0.71-3.12,0.13-7.09,4.48-12.07c4.35-4.98,12.23-10.97,17.46-15.11c5.23-4.14,7.83-6.41,8.37-8.14
	c0.54-1.73-0.96-2.91-4.4-3.25c-3.43-0.34-8.79,0.17-15.07,3.63s-13.48,9.87-17.67,15.57c-4.19,5.7-5.36,10.68-5.4,16.84
	c-0.04,6.16,1.05,13.5,4.94,17.81c3.89,4.3,10.59,5.57,16.66,6.46c6.07,0.89,11.51,1.39,14.44,1.98c2.93,0.59,3.35,1.27,2.93,2.15
	c-0.42,0.89-1.67,1.98-4.81,3.29c-3.14,1.31-8.16,2.83-11.81,5.27c-3.64,2.45-5.9,5.82-7.37,9.45c-1.47,3.63-2.14,7.51-1.72,9.83
	C1020.48,334.28,1021.99,335.04,1023.96,333.06z M1012.55,375.77c-0.32,0.24-0.37,0.66-1.43,9.39c-1.06,8.73-3.13,25.77-4.16,34.29
	c-1.03,8.52-1.03,8.52,3.44,6.24c4.48-2.28,13.43-6.84,18.1-9.41c4.67-2.57,5.05-3.15,5.39-9.6c0.34-6.45,0.63-18.77,0.58-24.93
	c-0.05-6.16-0.43-6.16-2.41-6.31c-1.97-0.15-5.54-0.44-8.8-0.46c-3.27-0.02-6.24,0.22-8.02,0.36
	C1013.46,375.49,1012.87,375.54,1012.55,375.77z M978.54,472.78c1.06,9.98,0.69,30.74,0.91,40.64c0.22,9.9,1.02,8.95,2.55,3.08
	c1.53-5.87,3.79-16.65,5.06-27.14c1.27-10.49,1.57-20.69,1.86-25.79c0.29-5.1,0.58-5.1,7.9-8.44c7.32-3.34,21.66-10.01,37.13-17.39
	c15.47-7.37,32.07-15.44,43.06-22.23c10.99-6.79,16.38-12.29,20.6-17.94c4.22-5.65,7.28-11.44,6.77-13.79
	c-0.51-2.35-4.59-1.25-11.25,1.98c-6.66,3.23-15.91,8.58-24.53,12.95c-8.63,4.36-16.63,7.74-20.75,9.43
	c-4.11,1.69-4.33,1.69-4.59-1.87c-0.25-3.56-0.55-10.67-0.4-17.35c0.15-6.68,0.73-12.91,0.91-15.99c0.18-3.08-0.04-3.01-2.37-3.12
	c-2.33-0.11-6.77-0.4-12.7-0.73c-5.93-0.33-13.36-0.7-17.03-1.03c-3.68-0.33-3.6-0.62-2.22-3.04c1.38-2.42,4.08-6.97,5.93-9.32
	c1.86-2.35,2.88-2.49,7.06-2.13c4.19,0.37,11.54,1.25,16.67,2.13c5.13,0.88,8.04,1.76,11.43,2.02c3.38,0.26,7.24-0.11,11.28-1.47
	c4.04-1.36,8.26-3.71,9.57-5.1c1.31-1.39-0.29-1.83-4.04-2.57c-3.75-0.73-9.65-1.76-17.25-2.31c-7.61-0.55-16.92-0.62-23.69-0.7
	c-6.77-0.07-10.99-0.15-13.36,0c-2.37,0.15-2.88,0.51-3.86,2.05c-0.98,1.54-2.44,4.25-5.28,8.66c-2.84,4.4-7.06,10.49-9.06,13.79
	c-2,3.3-1.78,3.82-1.09,4.07c0.69,0.26,1.86,0.26,3.28,0.26c1.42,0,3.09,0,3.86,0.59c0.76,0.59,0.62,1.76,0.55,2.68
	c-0.07,0.92-0.07,1.58-0.84,10.64c-0.76,9.06-2.29,26.52-3.09,35.32c-0.8,8.8-0.87,8.95-1.49,9.35c-0.62,0.4-1.78,1.06-11.14,5.65
	c-9.35,4.59-26.9,13.1-40.36,20.25c-13.47,7.15-22.86,12.95-28.28,16.58c-5.42,3.63-6.88,5.1-7.13,7.08
	c-0.25,1.98,0.69,4.48,4.66,5.14c3.97,0.66,10.96-0.51,21.26-4.69c10.3-4.18,23.91-11.37,31.96-15.37
	C975.01,463.61,977.49,462.8,978.54,472.78z M1152.84,400.15c7.85,6.16,23.06,15.67,40.06,25.81
	c16.99,10.14,35.77,20.91,45.16,26.59c9.39,5.68,9.39,6.26,9.34,17.18c-0.05,10.92-0.14,32.17,0.19,44.3
	c0.34,12.13,1.11,15.14,1.44,16.3c0.34,1.16,0.24,0.48,0.43-4.46c0.19-4.95,0.67-14.17,1.88-24.5c1.2-10.34,3.13-21.79,4.67-27.66
	c1.54-5.87,2.7-6.16,6.98-4.95c4.28,1.21,11.7,3.93,17.72,6.36c6.02,2.43,10.64,4.56,16.56,5.63c5.92,1.07,13.14,1.07,17.57-0.34
	c4.43-1.41,6.07-4.22,4.62-6.26c-1.44-2.04-5.97-3.3-9.29-4.27c-3.32-0.97-5.44-1.65-15.31-6.16c-9.87-4.51-27.49-12.86-51.32-25.42
	c-23.83-12.57-53.87-29.35-70.77-39.35c-16.9-10-20.65-13.2-23.25-13.83c-2.6-0.63-4.04,1.31-4.53,3.69
	C1144.51,391.17,1144.99,393.98,1152.84,400.15z M1351.08,499.36c4.04-2.35,11.1-6.24,16.2-8.92c5.1-2.68,8.23-4.15,9.68-5.47
	c1.46-1.32,1.24-2.5,0.4-3.49c-0.84-0.99-2.29-1.8-5.32-2.61c-3.02-0.81-7.61-1.61-12.34-3.71c-4.73-2.09-9.61-5.47-12.27-10.49
	c-2.66-5.03-3.09-11.71-0.22-19.23c2.88-7.52,9.07-15.89,13.87-21.76c4.81-5.87,8.23-9.25,9.76-9.14c1.53,0.11,1.17,3.71-0.91,8.37
	c-2.08,4.66-5.86,10.38-8.77,15.48c-2.91,5.1-4.95,9.58-5.9,13.14c-0.95,3.56-0.8,6.2,2.4,9.5c3.2,3.3,9.47,7.26,15,9.98
	c5.53,2.71,10.34,4.18,13.03,6.13c2.69,1.94,3.28,4.37,2.48,6.79c-0.8,2.42-2.99,4.84-7.24,6.93c-4.26,2.09-10.59,3.85-15.84,5.58
	c-5.24,1.72-9.39,3.41-12.56,4.55c-3.17,1.14-5.35,1.72-5.93,1.61C1346.01,502.52,1347.03,501.71,1351.08,499.36z M1014.16,708.15
	c-4.9-0.11-9.65-0.2-14.25-0.28l0.26-2.23c0.44-3.71,1.32-11.14,1.92-20.39c0.6-9.26,0.93-20.34,1.15-27.41
	c0.22-7.07,0.33-10.11,0.11-11.56c-0.22-1.44-0.77-1.27-5.83-1.36c-5.06-0.08-14.63-0.42-28.29-0.44
	c-13.67-0.03-31.43,0.25-46.08,0.33c-14.66,0.08-26.2-0.03-34.37-0.39c-8.17-0.36-12.95-0.97-16.66-2.08
	c-3.71-1.11-6.35-2.72-8.63-2.83c-2.28-0.11-4.21,1.28-5,3.91c-0.8,2.63-0.47,6.51-0.37,8.44c0.1,1.93-0.04,1.9-1.43,1.86
	c-1.39-0.05-4.03-0.12-8.1-0.7c-4.07-0.58-9.56-1.68-12.31-2.39c-2.75-0.71-2.75-1.04-2.5-4.57c0.25-3.53,0.76-10.28,1.23-13.68
	c0.47-3.41,0.9-3.48,6.56-3.53c5.66-0.05,16.54-0.09,30.57,0.25c14.03,0.35,31.21,1.08,53.87,2.44c22.67,1.36,50.83,3.37,67.27,4.44
	c16.45,1.07,21.18,1.22,23.55,1.36c2.37,0.14,2.38,0.28,2.43,2.07c0.05,1.79,0.13,5.22-0.18,12.54c-0.31,7.31-1.02,18.5-2,29.02
	c-0.98,10.52-2.22,20.37-2.77,25.44C1014.26,707.06,1014.2,707.64,1014.16,708.15z M324.95,765.71c-4.82,0.86-8.51,1.76-10.93,3.17
	c-2.42,1.41-3.56,3.33-4.01,5c-0.45,1.67-0.19,3.08,0.64,3.91c0.83,0.83,2.23,1.09,17.93-0.83c15.71-1.92,45.72-6.02,85.66-11.15
	c39.94-5.13,89.79-11.28,137.36-16.47c47.57-5.19,92.84-9.42,133.99-13.2c41.14-3.78,78.15-7.11,118.79-10
	c40.63-2.88,84.89-5.32,122.54-6.22c37.65-0.9,68.68-0.26,104.29,0.71c35.61,0.96,75.8,2.24,114.08,3.84
	c38.28,1.6,74.66,3.53,130.65,6.53c55.99,3,131.6,7.08,204.51,11.41c72.91,4.33,143.11,8.89,203.15,13.02
	c60.04,4.13,109.91,7.81,137.85,9.8c27.94,1.99,33.93,2.28,37.08,0.88c3.14-1.4,3.44-4.5,2.34-7c-1.1-2.51-3.58-4.42-31.59-6.71
	c-28.01-2.28-81.54-4.94-140.19-8.11c-58.65-3.17-122.42-6.85-190.87-11.13c-36.93-2.31-75.21-4.78-115.02-7.27
	c-0.09-0.92-0.26-2.19-0.48-3.92c-0.84-6.45-2.51-19.36-3.26-34.84c-0.75-15.48-0.59-33.53-0.5-42.56c0.08-9.03,0.08-9.03,0.08-9.03
	s0,0,3.64-0.04c3.64-0.04,10.92-0.13,21.01-0.21c10.09-0.08,22.98-0.17,30.26-1.56c7.28-1.39,8.96-4.09,7.53-6.45
	c-1.42-2.36-5.94-4.39-15.69-5.69c-9.75-1.31-24.73-1.9-58.64-2.57c-33.9-0.67-86.72-1.43-124.09-2.78
	c-37.37-1.35-59.3-3.29-70.98-4.43c-11.68-1.14-13.1-1.48-12.68-0.3c0.42,1.18,2.68,3.88,5.36,5.99c2.68,2.11,5.78,3.63,12.68,4.47
	c6.91,0.84,17.62,1.01,35.32,1.94c17.7,0.93,42.4,2.62,57.97,3.75c15.57,1.14,22.01,1.73,25.45,2.07c3.43,0.34,3.85,0.42,4.52,3.54
	c0.67,3.12,1.59,9.28,1.92,14.13c0.33,4.85,0.08,8.39-1.05,10.88c-1.13,2.49-3.14,3.92-9.46,4.81c-6.32,0.89-16.95,1.22-24.73,1.52
	c-7.78,0.3-12.72,0.55-15.19,1.35c-2.47,0.8-2.47,2.15-1.97,2.95c0.5,0.8,1.51,1.05,10.09,1.14c8.58,0.08,24.73,0,33.77-0.04
	c9.04-0.04,10.97-0.04,12.01-0.13c1.05-0.08,1.21-0.25,1.17-6.92c-0.04-6.66-0.29-19.82-0.42-26.4c-0.13-6.58-0.13-6.58-0.13-6.58
	s0,0,4.65,0.3c4.65,0.3,13.94,0.89,24.73,1.69c10.8,0.8,23.1,1.81,29.25,2.32c6.15,0.51,6.15,0.51,6.15,2.91
	c0,2.4,0,7.21-0.21,14.05c-0.21,6.83-0.63,15.69-0.08,26.45c0.54,10.76,2.05,23.41,2.85,32.1c0.78,8.47,0.87,13.17,0.92,15.59
	c-31.42-1.95-63.78-3.9-97.16-5.78c-48.97-2.75-100.13-5.32-146.65-7.36c4.48-0.45,9.14-0.91,13.58-1.28
	c11.77-1,21.95-1.44,30.15-1.33c8.2,0.11,14.42,0.78,19.39,1.33c4.98,0.55,8.72,1,11.53,1.11c2.81,0.11,4.68-0.11,6.08-0.61
	c1.4-0.5,2.34-1.28,2.86-1.91c0.52-0.64,0.63-1.14,0.36-2.08c-0.27-0.94-0.94-2.33-1.51-3.88c-0.58-1.55-1.07-3.27-1.24-8.82
	c-0.17-5.55,0-14.92,0.08-19.6c0.08-4.69,0.08-4.69,0.08-4.69s0,0,2.83,1.11c2.83,1.11,8.5,3.33,12.76,4.6
	c4.26,1.28,7.13,1.61,9,1.47c1.87-0.14,2.75-0.75,3.14-1.52c0.39-0.78,0.28-1.72-4.37-4.1c-4.65-2.38-13.84-6.21-18.51-8.26
	c-4.68-2.05-4.84-2.33-5.03-3.35c-0.19-1.03-0.41-2.8-0.52-3.69c-0.11-0.89-0.11-0.89-0.12-0.86c-0.01,0.03-0.03,0.09,0.63,0.12
	c0.66,0.03,2,0.03,2.96-0.1c0.96-0.13,1.55-0.38,2.13-0.8c0.59-0.42,1.17-1.01,1.67-1.73c0.5-0.72,0.92-1.56,0.88-2.45
	c-0.04-0.89-0.54-1.81-1.76-3.04c-1.21-1.22-3.14-2.74-5.56-4.43c-2.43-1.69-5.36-3.54-15.52-8.05
	c-10.17-4.51-27.57-11.68-57.74-24.58c-30.17-12.9-73.09-31.54-109.66-46.64c-36.57-15.1-66.77-26.65-82.63-32.46
	c-15.86-5.81-17.37-5.87-18.28-5.2c-0.92,0.66-1.25,2.05,2.63,4.88c3.88,2.83,11.97,7.1,24.22,13.24
	c12.25,6.15,28.68,14.17,46.63,22.37c17.95,8.2,37.43,16.57,62.41,26.91c24.98,10.34,55.46,22.65,78.32,32.13
	c22.86,9.48,38.1,16.14,45.86,19.63c7.76,3.49,8.03,3.83,8.25,5.02c0.22,1.19,0.39,3.24,0.41,4.24c0.03,1-0.08,0.94-1.6,0.44
	c-1.51-0.5-4.43-1.44-8.03-1.97c-3.6-0.53-7.9-0.64-10.4-0.69c-2.5-0.06-3.22-0.06-2.86,0.69c0.36,0.75,1.79,2.25,5.97,4.55
	c4.18,2.3,11.11,5.41,14.69,7.04c3.58,1.64,3.8,1.8,4.1,6.54c0.3,4.74,0.69,14.06,0.88,19.19c0.19,5.13,0.19,6.07-0.03,6.65
	c-0.22,0.58-0.66,0.8-9.63,1.41c-8.97,0.61-26.46,1.61-40.85,2.16c-14.39,0.55-25.67,0.67-31.47,0.67c-5.8,0-6.13-0.11-6.27-0.14
	c-0.14-0.03-0.08,0.03,1.29-3.71c1.38-3.74,4.07-11.28,5.56-16.25c1.49-4.96,1.76-7.35,1.87-8.62c0.11-1.28,0.06-1.44-2.75-1.44
	c-2.81,0-8.36,0.17-19.37,0.86c-11,0.69-27.45,1.91-37.61,2.74c-10.15,0.83-14,1.28-16.75,2.27c-2.75,1-4.4,2.55-1.18,3.16
	c3.22,0.61,11.31,0.28,23.69-0.19c12.38-0.47,29.05-1.08,37.39-1.39c8.34-0.3,8.34-0.3,8.34-0.3s0,0-0.3,0.78
	c-0.3,0.78-0.91,2.33-1.98,4.21c-1.07,1.89-2.61,4.1-4.46,7.37c-1.84,3.27-3.99,7.6-4.73,10.81c-0.74,3.22-0.08,5.32,0.44,7.13
	c0.22,0.75,0.41,1.45,0.62,2.08c-17.54-0.71-34.11-1.32-49.3-1.81c-10.01-0.32-19.41-0.59-28.3-0.82c0.04-1.3,0.12-3.36,0.38-7.31
	c0.37-5.7,1.12-15.34,1.89-25.5c0.77-10.16,1.56-20.85,2.16-26.97c0.6-6.12,1.02-7.67,1.39-8.45c0.37-0.78,0.71-0.78,6.15-0.75
	c5.45,0.02,16.01,0.06,28.88,0.5c12.87,0.44,28.05,1.28,41.95,1.99c13.9,0.72,26.51,1.31,34.53,1.64
	c8.02,0.33,11.45,0.39,13.22-0.92c1.78-1.32,1.9-4.01,0.68-6.01c-1.23-2-3.8-3.3-9.18-4.28c-5.38-0.98-13.55-1.65-29.12-2.46
	c-15.57-0.81-38.52-1.76-54.4-2.35c-15.87-0.59-24.66-0.82-29.06-0.94c-4.4-0.12-4.4-0.12-4.41-0.75c-0.02-0.63-0.05-1.9-1.02-2.6
	c-0.98-0.7-2.89-0.82-4.32-0.22c-1.43,0.6-2.37,1.93-2.85,2.6c-0.47,0.67-0.47,0.67-2.85,0.62c-2.37-0.05-7.12-0.14-18.35-0.67
	c-11.23-0.52-28.93-1.47-43.82-2.31c-14.89-0.84-26.97-1.57-40-2.37c-13.03-0.8-27.01-1.67-40.72-2.35
	c-13.71-0.68-27.15-1.16-33.82-1.42c-6.67-0.26-6.57-0.3-6.68-1.16c-0.11-0.86-0.44-2.54-1.54-3.38c-1.09-0.84-2.95-0.84-4.2-0.15
	c-1.24,0.69-1.87,2.07-2.19,2.76c-0.31,0.69-0.31,0.69-0.31,0.69s0,0-9.05-0.25c-9.05-0.25-27.16-0.74-45.46-1.28
	c-18.3-0.54-36.79-1.12-46.15-1.41c-9.37-0.29-9.61-0.29-9.15-0.63c0.46-0.34,1.64-1.03,10.31-4.73
	c8.67-3.69,24.83-10.39,40.03-16.81c15.19-6.41,29.41-12.54,48.56-20.89c19.15-8.34,43.23-18.9,59.27-25.98
	c16.04-7.08,24.05-10.67,29.17-13.64c5.13-2.97,7.38-5.32,7.68-7.37c0.29-2.05-1.38-3.81-3.93-4.66c-2.55-0.84-5.97-0.77-11.6,0.92
	c-5.64,1.69-13.5,4.99-32.63,13.38c-19.13,8.4-49.54,21.89-79.59,35.21c-30.04,13.33-59.72,26.49-87.59,38.84
	c-27.87,12.35-53.94,23.89-68.36,31.13c-14.42,7.24-17.21,10.17-18.5,11.7c-1.3,1.53-1.11,1.66,0.57,1.69
	c1.68,0.03,4.84-0.03,9.24-0.99c4.4-0.96,10.03-2.81,20.85-6.89c10.82-4.08,26.82-10.39,37.83-14.6c11.01-4.21,17.02-6.31,20.53-7.4
	c3.51-1.08,4.52-1.15,20.12-0.41c15.59,0.73,45.77,2.26,65.61,3.44c19.83,1.18,29.32,2.01,34.07,2.55c4.74,0.54,4.74,0.8,4.52,3.99
	c-0.22,3.19-0.66,9.31-0.95,12.62c-0.28,3.32-0.41,3.83-0.7,4.11c-0.28,0.29-0.73,0.35-10.15-1.34c-9.43-1.69-27.84-5.13-42.51-7.65
	c-14.68-2.52-25.62-4.11-35.55-5.07c-9.93-0.96-18.85-1.28-23.5-1.31c-4.65-0.03-5.03,0.22-5.31,0.7c-0.28,0.48-0.47,1.18-0.25,1.88
	c0.22,0.7,0.85,1.4,2.34,2.04c1.49,0.64,3.83,1.21,11.42,2.39c7.59,1.18,20.43,2.96,35.87,5.64c15.44,2.68,33.47,6.25,43.87,8.13
	c10.41,1.88,13.19,2.07,15.22,2.17c2.02,0.1,3.29,0.1,4.42,0.15c1.13,0.05,2.13,0.15,2.98,4.09c0.85,3.94,1.54,11.71,1.76,19.39
	c0.22,7.68-0.03,15.26-0.57,20.01c-0.54,4.75-1.36,6.66-1.52,7.93c-0.16,1.27,0.35,1.91,2.09,2.42c1.74,0.51,4.71,0.89,6.99,0.92
	c2.28,0.03,3.86-0.29,4.52-1.72c0.66-1.43,0.41-3.98-0.13-9.15c-0.54-5.16-1.36-12.94-1.3-20.39c0.06-7.46,1.01-14.59,1.49-18.16
	c0.47-3.57,0.47-3.57,0.47-3.57s0,0,3.92,0.19c3.92,0.19,11.76,0.57,15.68,0.77c3.92,0.19,3.92,0.19,3.92,0.19s0,0-0.35,3.25
	c-0.35,3.25-1.04,9.75-1.96,15.26c-0.92,5.51-2.06,10.04-2.5,13.35c-0.44,3.31-0.19,5.42,0.82,6.53c1.01,1.11,2.78,1.24,4.52,0.45
	c1.74-0.8,3.45-2.52,4.52-5.74c1.07-3.22,1.52-7.93,2.18-13.54c0.66-5.61,1.55-12.11,2.21-16.67c0.66-4.56,1.11-7.17,1.33-8.48
	c0.23-1.31,0.24-1.31,0.24-1.31c0,0,0,0,7.1,0.14c7.09,0.14,21.28,0.42,41.98,0.86c20.7,0.44,47.92,1.05,61.53,1.36
	c13.61,0.3,13.61,0.3,13.61,0.3s0,0-0.69,9.17c-0.69,9.17-2.06,27.52-2.75,36.69l-0.59,7.86c-28.17-0.35-50.97-0.14-72.85,0.39
	c-36.27,0.88-70.06,2.65-111.07,5.57c-41.01,2.92-89.25,6.99-139.83,11.72s-103.48,10.11-157.79,16.52
	c-54.31,6.41-110.02,13.84-140.84,17.97C335.73,764.02,329.78,764.85,324.95,765.71z M682.22,671.4c9.16-1.32,26.91-2.2,48.1-0.84
	c21.2,1.36,45.85,4.95,60.21,7.26c14.36,2.31,18.43,3.33,20.47,4.47c2.04,1.14,2.04,2.38,1.82,3.48c-0.22,1.1-0.65,2.05-3.2,2.6
	c-2.55,0.55-7.2,0.7-16.07-0.04c-8.87-0.73-21.96-2.35-35.85-4.03c-13.89-1.69-28.58-3.44-41.89-4.47
	c-13.31-1.03-25.23-1.32-32.32-1.8c-7.09-0.48-9.34-1.14-10.18-2.35C672.48,674.48,673.06,672.72,682.22,671.4z M661.61,643.95
	c-1.85,1.72-3.53,5.68-4.51,11.1c-0.98,5.42-1.27,12.31-1.67,18.51c-0.4,6.19-0.91,11.69-2,15.94c-1.09,4.25-2.76,7.26-3.27,10.11
	c-0.51,2.86,0.15,5.57,0.98,7.44c0.84,1.87,1.85,2.9,2.76,2.79c0.91-0.11,1.71-1.36,3.56-4.54c1.85-3.19,4.76-8.32,6.4-14.95
	c1.64-6.63,2-14.77,2.4-22.87c0.4-8.1,0.84-16.16,0.04-20.45C665.5,642.74,663.46,642.23,661.61,643.95z M1045.81,521.31
	c0.58-6.2,2.69-17.28,4.48-26.23c1.78-8.95,3.24-15.78,4.26-20.58c1.02-4.81,1.6-7.59,1.75-8.99c0.15-1.39-0.15-1.39-1.35-1.65
	c-1.2-0.26-3.31-0.77-4-1.25c-0.69-0.48,0.04-0.92,1.24-1.76c1.2-0.84,2.88-2.09,5.64-2.64c2.77-0.55,6.63-0.4,16.27,0.37
	c9.65,0.77,25.08,2.16,42.48,3.41c17.4,1.25,36.77,2.35,47.87,3.16c11.1,0.81,13.94,1.32,17.33,1.91c3.39,0.59,7.32,1.25,12.7,1.36
	c5.39,0.11,12.23-0.33,15.58-0.22c3.35,0.11,3.2,0.77,1.75,1.36c-1.46,0.59-4.22,1.1-6.22,1.54c-2,0.44-3.24,0.81-3.86,1.47
	c-0.62,0.66-0.62,1.61-0.36,4.81c0.26,3.19,0.76,8.62,0.15,14.31c-0.62,5.69-2.37,11.63-4.59,17.68
	c-2.22,6.05-4.91,12.22-6.23,17.79c-1.31,5.58-1.24,10.57-1.82,13.98c-0.58,3.41-1.82,5.25-2.51,5.17
	c-0.69-0.07-0.84-2.05-1.06-4.88c-0.22-2.83-0.51-6.49,0.18-12.99c0.69-6.49,2.37-15.81,4.19-25.24c1.82-9.43,3.79-18.97,4.55-23.7
	c0.76-4.73,0.33-4.66-0.95-4.51c-1.27,0.15-3.39,0.37-6.99,0c-3.6-0.37-8.7-1.32-13.21-2.09c-4.51-0.77-8.45-1.36-16.45-1.8
	c-8.01-0.44-20.09-0.73-34.44-1.8c-14.34-1.06-30.94-2.9-40.99-4.04c-10.05-1.14-13.54-1.58-15.25-1.5
	c-1.71,0.07-1.64,0.66-1.16,1.65c0.47,0.99,1.35,2.38,1.71,5.54c0.36,3.16,0.22,8.07-0.84,14.71c-1.06,6.64-3.02,15.01-4.88,22.23
	c-1.86,7.23-3.6,13.32-5.86,16.84c-2.26,3.52-5.02,4.48-6.88,4.29C1046.17,528.83,1045.22,527.51,1045.81,521.31z"/>
<path class="st4" d="M1440.83,605.98c1.49-2.79,5.13-8,10.92-13.25c5.79-5.25,13.73-10.53,19.44-14.9
	c5.72-4.37,9.21-7.82,11.21-9.83c2-2.02,2.51-2.61,4.08-2.42c1.57,0.18,4.19,1.14,7.83,2.17c3.64,1.03,8.3,2.13,13.18,3.27
	c4.88,1.14,9.98,2.31,13.87,3.05c3.9,0.73,6.59,1.03,9.43,1.36c2.84,0.33,5.83,0.7,7.83,1.03c2,0.33,3.02,0.62,2.91,1.58
	c-0.11,0.95-1.35,2.57-3.93,5.1c-2.59,2.53-6.52,5.98-9.87,9.1c-3.35,3.12-6.12,5.91-8.23,8.15c-2.11,2.24-3.57,3.93-4.15,5.28
	c-0.58,1.36-0.29,2.38,0.44,3.34c0.73,0.95,1.89,1.83,4.99,2.64c3.1,0.81,8.12,1.54,12.85,1.98c4.73,0.44,9.18,0.59,13.4,0.77
	c4.22,0.18,8.23,0.4,12.09,0.88c3.86,0.48,7.57,1.21,10.74,1.94c3.17,0.73,5.79,1.47,7.39,2.17c1.6,0.7,2.18,1.36,2.04,2.24
	c-0.15,0.88-1.02,1.98-2.73,3.38c-1.71,1.39-4.26,3.08-6.92,4.66c-2.66,1.58-5.43,3.05-8.19,4.62c-2.77,1.58-5.53,3.27-8.12,4.88
	c-2.59,1.61-4.99,3.16-7.61,4.92c-2.62,1.76-5.46,3.74-7.65,5.36c-2.18,1.61-3.71,2.86-4.77,4.33c-1.06,1.47-1.64,3.16-1.89,4.51
	c-0.25,1.36-0.18,2.38,0.51,3.34c0.69,0.95,2,1.83,3.79,2.31c1.78,0.48,4.04,0.55,6.3,0.51c2.26-0.04,4.52-0.18,7.17-0.07
	c2.66,0.11,5.72,0.48,7.5,1.1c1.78,0.62,2.29,1.5,1.89,2.6c-0.4,1.1-1.71,2.42-3.31,3.38c-1.6,0.95-3.5,1.54-7.03,3.89
	c-3.53,2.35-8.7,6.46-14.56,10.24c-5.86,3.78-12.42,7.23-18.13,9.39c-5.72,2.16-10.6,3.05-13.07,3.38
	c-2.48,0.33-2.55,0.11-2.55-0.92c0-1.03,0.07-2.86,0.55-8.92c0.47-6.05,1.35-16.33,1.78-24.11c0.44-7.78,0.44-13.06,0.15-17.65
	c-0.29-4.59-0.87-8.48-2.88-10.94c-2-2.46-5.43-3.49-8.92-2.31c-3.5,1.17-7.06,4.55-9.03,9.8c-1.97,5.25-2.33,12.37-2.62,15.85
	c-0.29,3.49-0.51,3.34-2.22,2.57c-1.71-0.77-4.92-2.17-9.03-3.27c-4.11-1.1-9.14-1.91-12.45-2.42c-3.31-0.51-4.92-0.73-6.01-1.65
	c-1.09-0.92-1.68-2.53-0.76-4.26c0.91-1.72,3.31-3.56,8.08-6.05c4.77-2.5,11.91-5.65,17.84-9.03c5.94-3.38,10.67-6.97,13.33-9.54
	c2.66-2.57,3.24-4.11,3.46-5.91c0.22-1.8,0.07-3.85-0.58-5.47c-0.66-1.61-1.82-2.79-4.92-3.78c-3.09-0.99-8.12-1.8-13.29-1.94
	c-5.17-0.15-10.49,0.37-14.86,0.62c-4.37,0.26-7.79,0.26-10.45,0.29c-2.66,0.04-4.55,0.11-5.83-0.04
	C1439.99,609.13,1439.34,608.77,1440.83,605.98 M492.39,738.19c0.17-8.26,1.83-26.56,4.1-41.35c2.27-14.79,5.15-26.06,7.14-32.09
	c1.99-6.03,3.1-6.81,4.1-6.64c1,0.17,1.88,1.28,2.05,5.8c0.17,4.52-0.39,12.44-0.66,16.24c-0.28,3.79-0.28,3.46,4.21,0.78
	c4.49-2.68,13.46-7.7,21.71-13.34c8.25-5.64,15.78-11.89,20.27-16.52c4.48-4.63,5.92-7.65,5.87-9.38c-0.06-1.73-1.61-2.18-3.99-2.29
	c-2.38-0.11-5.59,0.11-8.08-0.11c-2.49-0.22-4.26-0.89-4.65-2.34c-0.39-1.45,0.61-3.68,1.88-5.64c1.27-1.95,2.82-3.63,3.99-6.14
	c1.16-2.51,1.94-5.86,2.16-9.6c0.22-3.74-0.11-7.87-2.93-12.56c-2.82-4.69-8.14-9.93-14.95-13.5c-6.81-3.57-15.12-5.47-22.04-6.36
	c-6.92-0.89-12.46-0.78-14.56-1.62c-2.1-0.84-0.78-2.62,1.27-5.02c2.05-2.4,4.82-5.41,8.14-10.32c3.32-4.91,7.2-11.72,9.58-16.8
	c2.38-5.08,3.27-8.43,2.55-9.54c-0.72-1.12-3.05,0-7.75,1.12c-4.71,1.12-11.79,2.23-21.15,4.69c-9.36,2.46-20.99,6.25-26.97,8.2
	c-5.98,1.95-6.31,2.06-5.32,2.46c1,0.39,3.32,1.06,4.76,2.01c1.44,0.95,1.99,2.18,1.16,3.74c-0.83,1.56-3.05,3.46-6.26,6.31
	c-3.21,2.85-7.42,6.64-12.18,10.32c-4.76,3.68-10.08,7.25-14.51,10.04c-4.43,2.79-7.97,4.8-10.63,6.59
	c-2.66,1.79-4.43,3.35-4.87,4.24c-0.44,0.89,0.44,1.12,3.32,2.57c2.88,1.45,7.75,4.13,11.41,6.19c3.65,2.06,6.09,3.52,7.75,4.69
	c1.66,1.17,2.55,2.06,2.49,2.96c-0.06,0.89-1.05,1.79-2.66,2.85c-1.61,1.06-3.82,2.29-6.04,3.68c-2.21,1.4-4.43,2.96-6.48,4.41
	c-2.05,1.45-3.93,2.79-4.54,3.91c-0.61,1.12,0.06,2.01,2.21,2.96c2.16,0.95,5.81,1.95,9.47,2.51c3.65,0.56,7.31,0.67,13.01,0.95
	c5.7,0.28,13.46,0.73,20.32,1c6.87,0.28,12.85,0.39,17.17,0.78c4.32,0.39,6.98,1.06,9.19,1.84c2.22,0.78,3.99,1.67,4.6,3.13
	c0.61,1.45,0.06,3.46-2.66,5.02c-2.71,1.56-7.59,2.68-12.02,3.35c-4.43,0.67-8.42,0.89-12.4,1.56c-3.99,0.67-7.97,1.79-10.58,2.79
	c-2.6,1-3.82,1.9-4.71,2.73c-0.89,0.84-1.44,1.62-1.38,2.57c0.05,0.95,0.72,2.06,5.81,3.96c5.09,1.9,14.62,4.58,21.21,6.58
	c6.59,2.01,10.24,3.35,12.4,4.3c2.16,0.95,2.82,1.51,2.99,2.01c0.17,0.5-0.17,0.95-1.22,1.12c-1.05,0.17-2.82,0.06-6.26-0.67
	c-3.43-0.73-8.53-2.06-13.51-3.24c-4.98-1.17-9.86-2.18-15.12-2.9c-5.26-0.73-10.91-1.17-15.62-1.9c-4.71-0.73-8.47-1.73-11.24-3.01
	c-2.77-1.28-4.54-2.85-5.43-4.97c-0.89-2.12-0.89-4.8,0.5-6.58c1.38-1.79,4.15-2.68,9.14-2.96c4.98-0.28,12.18,0.06,18.49-0.78
	c6.31-0.84,11.74-2.85,13.95-3.79c2.21-0.95,1.22-0.84-0.89-0.73c-2.1,0.11-5.32,0.22-12.96-0.61c-7.64-0.84-19.71-2.62-28.46-4.24
	c-8.75-1.62-14.18-3.07-18.94-4.58c-4.76-1.51-8.86-3.07-10.91-4.13c-2.05-1.06-2.05-1.62-0.39-2.57c1.66-0.95,4.98-2.29,9.25-3.96
	c4.26-1.67,9.47-3.68,12.68-5.08c3.21-1.4,4.43-2.18,4.82-2.68c0.39-0.5-0.06-0.73-1.55-1.56c-1.5-0.84-4.04-2.29-6.76-4.24
	c-2.71-1.95-5.59-4.41-8.36-7.31c-2.77-2.9-5.43-6.25-6.53-8.98c-1.11-2.73-0.66-4.86,2.21-7.37c2.88-2.51,8.2-5.41,12.96-7.87
	c4.76-2.46,8.97-4.46,13.57-6.53c4.6-2.07,9.58-4.19,12.96-5.8c3.38-1.62,5.15-2.73,5.04-3.29c-0.11-0.56-2.1-0.56-4.15-0.95
	c-2.05-0.39-4.15-1.17-5.54-2.23c-1.38-1.06-2.05-2.4-1.55-3.85c0.5-1.45,2.16-3.01,3.93-4.63c1.77-1.62,3.65-3.29,5.98-5.08
	c2.33-1.79,5.09-3.68,10.74-5.53c5.65-1.84,14.18-3.63,24.92-6.31c10.74-2.68,23.7-6.25,32.34-8.48c8.64-2.23,12.96-3.13,15.5-2.79
	c2.55,0.33,3.32,1.9,3.6,4.46c0.28,2.57,0.06,6.14-1.66,10.27c-1.72,4.13-4.93,8.82-7.81,12.84c-2.88,4.02-5.43,7.37-7.09,10.6
	c-1.66,3.24-2.44,6.36-2.49,7.92c-0.06,1.56,0.61,1.56,1.83,1.56c1.22,0,2.99,0,6.53,0.5c3.54,0.5,8.86,1.51,13.57,3.74
	c4.71,2.23,8.8,5.69,12.9,9.32c4.1,3.63,8.2,7.42,11.13,11.38c2.93,3.96,4.71,8.09,5.15,12.95c0.44,4.85-0.44,10.44-0.83,13.45
	c-0.39,3.01-0.28,3.46,0.33,3.91c0.61,0.45,1.72,0.89,2.99,1.73c1.27,0.84,2.71,2.06,3.6,4.24c0.89,2.18,1.22,5.3-1.11,10.55
	c-2.33,5.25-7.31,12.61-15.45,19.7c-8.14,7.09-19.44,13.9-27.74,17.97c-8.31,4.07-13.62,5.41-16.56,6.53
	c-2.93,1.12-3.49,2.01-4.6,5.19c-1.11,3.18-2.77,8.65-4.65,16.74c-1.88,8.09-3.99,18.81-5.7,25.06
	C493.55,744.66,492.22,746.44,492.39,738.19z M789.97,450.89c-9.68,1.41-27.59,3.64-42.61,5.58c-15.02,1.94-27.16,3.59-36.06,3.83
	c-8.91,0.24-14.59-0.92-18.97-2.57c-4.38-1.65-7.46-3.78-7.99-5.14c-0.53-1.36,1.49-1.94,9.63-5.1c8.14-3.15,22.39-8.88,33.85-14.02
	c11.46-5.14,20.13-9.71,24.94-12.28c4.81-2.57,5.78-3.15,4.48-3.59c-1.3-0.44-4.86-0.73-9.68-1.75c-4.82-1.02-10.88-2.77-15.36-4.51
	c-4.48-1.75-7.37-3.49-6.21-4.76c1.16-1.26,6.36-2.04,11.41-3.06c5.06-1.02,9.97-2.28,21.81-10.24
	c11.84-7.96,30.62-22.61,43.48-32.46c12.86-9.85,19.79-14.9,23.64-17.13c3.85-2.23,4.62-1.65,5.59-0.05
	c0.96,1.6,2.12,4.22,6.31,8.49c4.19,4.27,11.41,10.19,20.51,15.97c9.1,5.77,20.08,11.4,27.06,16.35c6.98,4.95,9.97,9.22,10.64,13.83
	c0.67,4.61-0.96,9.56-3.51,13.3c-2.55,3.74-6.02,6.26-7.75,7.52c-1.73,1.26-1.73,1.26-1.25,1.65c0.48,0.39,1.44,1.16,3.56,4.51
	c2.12,3.35,5.39,9.27,6.21,14.36c0.82,5.1-0.82,9.37-4.19,14.36c-3.37,5-8.47,10.72-14.2,14.51c-5.73,3.79-12.09,5.63-17.77,6.65
	c-5.68,1.02-10.69,1.21-12.57,1.16c-1.88-0.05-0.63-0.34,3.52-2.23c4.14-1.89,11.17-5.39,17.91-10.53
	c6.74-5.14,13.19-11.94,15.46-18.05c2.26-6.11,0.34-11.55-4.38-14.9c-4.72-3.35-12.23-4.61-16.42-6.31
	c-4.19-1.7-5.06-3.83-4.86-5.53c0.19-1.7,1.44-2.96,4.53-3.59c3.08-0.63,7.99-0.63,12.33-1.36c4.33-0.73,8.09-2.18,10.74-4.03
	c2.65-1.84,4.19-4.08,4.19-6.79c0-2.72-1.54-5.92-4.38-8.69c-2.84-2.77-6.98-5.1-13.82-8.59c-6.84-3.49-16.37-8.15-23.98-13.44
	c-7.61-5.29-13.29-11.21-16.23-14.12c-2.94-2.91-3.13-2.81-3.23-2.77c-0.1,0.05-0.1,0.05-5.15,4.22
	c-5.06,4.17-15.17,12.52-24.56,19.7c-9.39,7.18-18.06,13.2-24.99,17.52c-6.93,4.32-12.13,6.94-14.64,8.3
	c-2.5,1.36-2.31,1.46-1.3,1.75c1.01,0.29,2.84,0.78,6.65,1.6c3.8,0.83,9.58,1.99,13.43,2.67c3.85,0.68,5.78,0.87,6.93,1.31
	c1.16,0.44,1.54,1.12,0.82,2.13c-0.72,1.02-2.55,2.38-5.49,3.59c-2.94,1.21-6.98,2.28-13.77,5.82c-6.79,3.54-16.32,9.56-22.49,13.54
	c-6.16,3.98-8.96,5.92-10.11,7.04c-1.16,1.12-0.67,1.41,2.46,1.89c3.13,0.49,8.91,1.16,14.73,1.5c5.83,0.34,11.7,0.34,17.38,0.34
	c5.68,0,11.17,0,17.19,0c6.02,0,12.57,0,15.12,0.29C801.09,448.9,799.64,449.48,789.97,450.89z M815.78,516.84
	c-0.63-10.63-0.43-31.69,1.49-48.63c1.93-16.94,5.59-29.75,8.04-36.35c2.46-6.6,3.71-6.99,5.59-7.08c1.88-0.1,4.38,0.1,5.83,0.29
	c1.44,0.19,1.83,0.39,1.88,2.77c0.05,2.38-0.24,6.94-0.91,12.18c-0.67,5.24-1.73,11.16-3.18,19.27c-1.44,8.1-3.27,18.39-4.96,26.93
	c-1.69,8.54-3.23,15.33-4.57,20.67c-1.35,5.34-2.5,9.22-3.42,12.47c-0.92,3.25-1.59,5.87-2.65,7.09
	C817.85,527.67,816.4,527.47,815.78,516.84z M1491.14,729.78c1.78-1.89,3.51-5.29,4.96-8.98c1.44-3.69,2.6-7.67,3.66-9.8
	c1.06-2.14,2.02-2.43,5.63-3.83c3.61-1.41,9.87-3.93,18.92-7.28c9.05-3.35,20.9-7.52,29.13-12.18c8.23-4.66,12.86-9.8,14.59-14.66
	c1.73-4.85,0.58-9.41-2.02-12.42c-2.6-3.01-6.64-4.46-8.52-5.34c-1.88-0.87-1.59-1.16,0.14-2.48c1.73-1.31,4.91-3.64,11.22-8.4
	c6.31-4.76,15.75-11.94,19.07-17.13c3.32-5.19,0.53-8.4-2.84-11.11c-3.37-2.72-7.32-4.95-14.83-6.79
	c-7.51-1.84-18.59-3.3-25.04-4.42c-6.45-1.12-8.28-1.89-9.15-2.43c-0.87-0.53-0.77-0.83,0.58-2.28c1.35-1.46,3.95-4.08,8.62-9.46
	c4.67-5.39,11.41-13.54,15.31-18.64c3.9-5.1,4.96-7.13,3.76-7.38c-1.2-0.24-4.67,1.31-11.12,1.99c-6.45,0.68-15.89,0.49-22.39,0.15
	c-6.5-0.34-10.06-0.83-15.07-1.94c-5.01-1.12-11.46-2.86-16.57-4.42c-5.1-1.55-8.86-2.91-11.85-3.79c-2.99-0.87-5.2-1.26-7.32-0.19
	c-2.12,1.07-4.14,3.59-7.08,6.75c-2.94,3.15-6.79,6.94-11.08,10.77c-4.29,3.83-9,7.72-13.29,11.16c-4.29,3.45-8.14,6.45-10.79,8.93
	c-2.65,2.47-4.09,4.42-5.06,6.41c-0.96,1.99-1.44,4.03-1.64,6.07c-0.19,2.04-0.1,4.08,1.01,5.78c1.11,1.7,3.23,3.06,5.83,3.83
	c2.6,0.78,5.68,0.97,9.73,1.02c4.04,0.05,9.05-0.05,13.15-0.19c4.09-0.15,7.27-0.34,10.16-0.34c2.89,0,5.49,0.19,7.08,0.63
	c1.59,0.44,2.17,1.12,2.5,1.84c0.34,0.73,0.43,1.5-0.77,2.86c-1.2,1.36-3.71,3.3-6.31,5c-2.6,1.7-5.3,3.15-7.99,4.66
	c-2.7,1.5-5.39,3.06-8.76,4.9c-3.37,1.84-7.42,3.98-11.22,6.26c-3.8,2.28-7.37,4.71-9.87,6.79c-2.5,2.09-3.95,3.83-4.43,5.19
	c-0.48,1.36,0,2.33,1.25,3.4c1.25,1.07,3.27,2.23,5.54,3.25c2.26,1.02,4.77,1.89,7.42,2.62c2.65,0.73,5.44,1.31,8.14,1.75
	c2.7,0.44,5.3,0.73,7.95,0.97c2.65,0.24,5.34,0.44,7.61,0.73c2.26,0.29,4.09,0.68,5.54,1.26c1.45,0.58,2.5,1.36,2.89,2.72
	c0.39,1.36,0.1,3.3-0.29,5.78c-0.38,2.47-0.87,5.48-1.11,7.96c-0.24,2.48-0.24,4.42-0.24,6.94c0,2.52,0,5.63,0,8.64
	c0,3.01,0,5.92-0.05,8.69c-0.05,2.77-0.14,5.39-0.14,8.1s0.1,5.53,0.39,7.38c0.29,1.84,0.77,2.72,1.69,3.69
	c0.91,0.97,2.26,2.04,3.66,2.67c1.4,0.63,2.84,0.83,4.48,0.73C1487.53,732.06,1489.36,731.67,1491.14,729.78z"/>
</svg>
